<svg xmlns="http://www.w3.org/2000/svg" viewBox="0 0 69.6 144.72">
  <path d="M 41.76 9.6 L 41.76 23.04" fill="none" stroke="currentColor" stroke-width="2.88" stroke-linecap="round"/>
  <path d="M 41.76 33.84 L 41.76 135.12" fill="none" stroke="currentColor" stroke-width="2.88" stroke-linecap="round"/>
  <path d="M 41.76 23.04 L 43.92 23.04" fill="none" stroke="currentColor" stroke-width="2.88" stroke-linecap="round"/>
  <path d="M 39.6 23.04 L 41.76 23.04" fill="none" stroke="currentColor" stroke-width="2.88" stroke-linecap="round"/>
  <path d="M 42.96 24.36 C 42.96 23.63 42.37 23.04 41.64 23.04 C 40.91 23.04 40.32 23.63 40.32 24.36 C 40.32 25.09 40.91 25.68 41.64 25.68 C 42.37 25.68 42.96 25.09 42.96 24.36" fill="none" stroke="currentColor" stroke-width="2.88" stroke-linecap="round"/>
  <path d="M 42.96 32.52 C 42.96 31.79 42.37 31.2 41.64 31.2 C 40.91 31.2 40.32 31.79 40.32 32.52 C 40.32 33.25 40.91 33.84 41.64 33.84 C 42.37 33.84 42.96 33.25 42.96 32.52" fill="none" stroke="currentColor" stroke-width="2.88" stroke-linecap="round"/>
  <path d="M 41.04 31.44 L 35.52 23.04" fill="none" stroke="currentColor" stroke-width="2.88" stroke-linecap="round"/>
  <path d="M 33.12 48.96 L 41.76 48.96" fill="none" stroke="currentColor" stroke-width="2.88" stroke-linecap="round"/>
  <path d="M 33.12 48.96 L 33.12 46.56" fill="none" stroke="currentColor" stroke-width="2.88" stroke-linecap="round"/>
  <path d="M 33.12 51.12 L 33.12 48.96" fill="none" stroke="currentColor" stroke-width="2.88" stroke-linecap="round"/>
  <path d="M 33.12 42 L 22.08 48.96" fill="none" stroke="currentColor" stroke-width="2.88" stroke-linecap="round"/>
  <path d="M 22.08 48.96 L 12 48.96" fill="none" stroke="currentColor" stroke-width="2.88" stroke-linecap="round"/>
  <path d="M 12 48.96 L 12 46.56" fill="none" stroke="currentColor" stroke-width="2.88" stroke-linecap="round"/>
  <path d="M 12 51.12 L 12 48.96" fill="none" stroke="currentColor" stroke-width="2.88" stroke-linecap="round"/>
  <path d="M 10.8 49.92 L 10.8 47.76" fill="none" stroke="currentColor" stroke-width="2.88" stroke-linecap="round"/>
  <path d="M 9.6 49.68 L 9.6 48.24" fill="none" stroke="currentColor" stroke-width="2.88" stroke-linecap="round"/>
  <path d="M 27.6 45.36 L 27.6 45.36" fill="none" stroke="currentColor" stroke-width="2.88" stroke-linecap="round"/>
  <path d="M 27.6 29.76 L 27.6 29.76" fill="none" stroke="currentColor" stroke-width="2.88" stroke-linecap="round"/>
  <path d="M 27.6 29.76 L 27.6 29.76" fill="none" stroke="currentColor" stroke-width="2.88" stroke-linecap="round"/>
  <path d="M 30.48 29.76 L 30.48 29.76" fill="none" stroke="currentColor" stroke-width="2.88" stroke-linecap="round"/>
  <path d="M 33.6 29.76 L 33.6 29.76" fill="none" stroke="currentColor" stroke-width="2.88" stroke-linecap="round"/>
  <path d="M 40.08 29.76 L 40.08 29.76" fill="none" stroke="currentColor" stroke-width="2.88" stroke-linecap="round"/>
  <path d="M 31.92 32.4 L 33.84 29.04" fill="none" stroke="currentColor" stroke-width="2.88" stroke-linecap="round"/>
  <path d="M 31.92 32.4 L 30 29.04" fill="none" stroke="currentColor" stroke-width="2.88" stroke-linecap="round"/>
  <path d="M 30 29.04 L 33.84 29.04" fill="none" stroke="currentColor" stroke-width="2.88" stroke-linecap="round"/>
  <path d="M 41.76 48.96 L 48.24 48.96" fill="none" stroke="currentColor" stroke-width="2.88" stroke-linecap="round"/>
  <path d="M 50.16 48.96 L 55.2 48.96" fill="none" stroke="currentColor" stroke-width="2.88" stroke-linecap="round"/>
  <path d="M 48.24 48.96 L 48.24 46.56" fill="none" stroke="currentColor" stroke-width="2.88" stroke-linecap="round"/>
  <path d="M 50.16 48.96 L 50.16 46.56" fill="none" stroke="currentColor" stroke-width="2.88" stroke-linecap="round"/>
  <path d="M 48.24 51.12 L 48.24 48.96" fill="none" stroke="currentColor" stroke-width="2.88" stroke-linecap="round"/>
  <path d="M 50.16 51.12 L 50.16 48.96" fill="none" stroke="currentColor" stroke-width="2.88" stroke-linecap="round"/>
  <path d="M 38.88 115.44 L 44.64 121.44" fill="none" stroke="currentColor" stroke-width="2.88" stroke-linecap="round"/>
  <path d="M 38.88 120.24 L 44.64 126" fill="none" stroke="currentColor" stroke-width="2.88" stroke-linecap="round"/>
  <path d="M 38.88 110.88 L 44.64 116.64" fill="none" stroke="currentColor" stroke-width="2.88" stroke-linecap="round"/>
  <path d="M 60 48.84 C 60 47.45 58.87 46.32 57.48 46.32 C 56.09 46.32 54.96 47.45 54.96 48.84 C 54.96 50.23 56.09 51.36 57.48 51.36 C 58.87 51.36 60 50.23 60 48.84" fill="none" stroke="currentColor" stroke-width="2.88" stroke-linecap="round"/>
  <path d="M 59.28 47.04 L 55.92 50.64" fill="none" stroke="currentColor" stroke-width="2.88" stroke-linecap="round"/>
  <path d="M 59.28 50.64 L 55.92 47.04" fill="none" stroke="currentColor" stroke-width="2.88" stroke-linecap="round"/>
</svg>
