<svg xmlns="http://www.w3.org/2000/svg" viewBox="0 0 84.96 144.72">
  <path d="M 49.92 38.52 C 49.92 37.79 49.33 37.2 48.6 37.2 C 47.87 37.2 47.28 37.79 47.28 38.52 C 47.28 39.25 47.87 39.84 48.6 39.84 C 49.33 39.84 49.92 39.25 49.92 38.52" fill="none" stroke="currentColor" stroke-width="2.88" stroke-linecap="round"/>
  <path d="M 32.88 50.16 L 48.72 50.16" fill="none" stroke="currentColor" stroke-width="2.88" stroke-linecap="round"/>
  <path d="M 32.88 50.16 L 32.88 48" fill="none" stroke="currentColor" stroke-width="2.88" stroke-linecap="round"/>
  <path d="M 32.88 52.32 L 32.88 50.16" fill="none" stroke="currentColor" stroke-width="2.88" stroke-linecap="round"/>
  <path d="M 32.88 43.2 L 21.84 50.16" fill="none" stroke="currentColor" stroke-width="2.88" stroke-linecap="round"/>
  <path d="M 21.84 50.16 L 11.76 50.16" fill="none" stroke="currentColor" stroke-width="2.88" stroke-linecap="round"/>
  <path d="M 11.76 50.16 L 11.76 48" fill="none" stroke="currentColor" stroke-width="2.88" stroke-linecap="round"/>
  <path d="M 11.76 52.32 L 11.76 50.16" fill="none" stroke="currentColor" stroke-width="2.88" stroke-linecap="round"/>
  <path d="M 56.16 91.68 L 54 91.68" fill="none" stroke="currentColor" stroke-width="2.88" stroke-linecap="round"/>
  <path d="M 58.32 91.68 L 56.16 91.68" fill="none" stroke="currentColor" stroke-width="2.88" stroke-linecap="round"/>
  <path d="M 10.56 51.36 L 10.56 48.96" fill="none" stroke="currentColor" stroke-width="2.88" stroke-linecap="round"/>
  <path d="M 57.36 92.64 L 54.96 92.64" fill="none" stroke="currentColor" stroke-width="2.88" stroke-linecap="round"/>
  <path d="M 9.6 50.88 L 9.6 49.44" fill="none" stroke="currentColor" stroke-width="2.88" stroke-linecap="round"/>
  <path d="M 56.88 93.84 L 55.44 93.84" fill="none" stroke="currentColor" stroke-width="2.88" stroke-linecap="round"/>
  <path d="M 27.36 46.56 L 27.36 46.56" fill="none" stroke="currentColor" stroke-width="2.88" stroke-linecap="round"/>
  <path d="M 27.36 33.6 L 27.36 33.6" fill="none" stroke="currentColor" stroke-width="2.88" stroke-linecap="round"/>
  <path d="M 27.36 33.6 L 27.36 33.6" fill="none" stroke="currentColor" stroke-width="2.88" stroke-linecap="round"/>
  <path d="M 30.48 33.6 L 30.48 33.6" fill="none" stroke="currentColor" stroke-width="2.88" stroke-linecap="round"/>
  <path d="M 31.92 36.24 L 33.84 32.88" fill="none" stroke="currentColor" stroke-width="2.88" stroke-linecap="round"/>
  <path d="M 31.92 36.24 L 30 32.88" fill="none" stroke="currentColor" stroke-width="2.88" stroke-linecap="round"/>
  <path d="M 30 32.88 L 33.84 32.88" fill="none" stroke="currentColor" stroke-width="2.88" stroke-linecap="round"/>
  <path d="M 48.72 135.12 L 48.72 39.84" fill="none" stroke="currentColor" stroke-width="2.88" stroke-linecap="round"/>
  <path d="M 48.48 37.2 L 44.88 23.52" fill="none" stroke="currentColor" stroke-width="2.88" stroke-linecap="round"/>
  <path d="M 48.72 23.52 L 48.72 9.6" fill="none" stroke="currentColor" stroke-width="2.88" stroke-linecap="round"/>
  <path d="M 48.72 23.52 L 50.88 23.52" fill="none" stroke="currentColor" stroke-width="2.88" stroke-linecap="round"/>
  <path d="M 46.56 23.52 L 48.72 23.52" fill="none" stroke="currentColor" stroke-width="2.88" stroke-linecap="round"/>
  <path d="M 49.92 24.84 C 49.92 24.11 49.33 23.52 48.6 23.52 C 47.87 23.52 47.28 24.11 47.28 24.84 C 47.28 25.57 47.87 26.16 48.6 26.16 C 49.33 26.16 49.92 25.57 49.92 24.84" fill="none" stroke="currentColor" stroke-width="2.88" stroke-linecap="round"/>
  <path d="M 48.72 50.16 L 55.2 50.16" fill="none" stroke="currentColor" stroke-width="2.88" stroke-linecap="round"/>
  <path d="M 57.36 50.16 L 62.16 50.16" fill="none" stroke="currentColor" stroke-width="2.88" stroke-linecap="round"/>
  <path d="M 55.2 50.16 L 55.2 48" fill="none" stroke="currentColor" stroke-width="2.88" stroke-linecap="round"/>
  <path d="M 57.36 50.16 L 57.36 48" fill="none" stroke="currentColor" stroke-width="2.88" stroke-linecap="round"/>
  <path d="M 55.2 52.56 L 55.2 50.16" fill="none" stroke="currentColor" stroke-width="2.88" stroke-linecap="round"/>
  <path d="M 57.36 52.56 L 57.36 50.16" fill="none" stroke="currentColor" stroke-width="2.88" stroke-linecap="round"/>
  <path d="M 47.52 33.6 L 47.52 33.6" fill="none" stroke="currentColor" stroke-width="2.88" stroke-linecap="round"/>
  <path d="M 33.36 33.6 L 33.36 33.6" fill="none" stroke="currentColor" stroke-width="2.88" stroke-linecap="round"/>
  <path d="M 46.08 28.8 L 43.68 28.8" fill="none" stroke="currentColor" stroke-width="2.88" stroke-linecap="round"/>
  <path d="M 43.44 28.68 C 43.44 27.16 42.2 25.92 40.68 25.92 C 39.16 25.92 37.92 27.16 37.92 28.68 C 37.92 30.2 39.16 31.44 40.68 31.44 C 42.2 31.44 43.44 30.2 43.44 28.68" fill="none" stroke="currentColor" stroke-width="2.88" stroke-linecap="round"/>
  <path d="M 37.68 24.72 L 43.92 24.72" fill="none" stroke="currentColor" stroke-width="2.88" stroke-linecap="round"/>
  <path d="M 43.92 18.48 L 43.92 24.72" fill="none" stroke="currentColor" stroke-width="2.88" stroke-linecap="round"/>
  <path d="M 37.68 18.48 L 43.92 18.48" fill="none" stroke="currentColor" stroke-width="2.88" stroke-linecap="round"/>
  <path d="M 37.68 18.48 L 37.68 24.72" fill="none" stroke="currentColor" stroke-width="2.88" stroke-linecap="round"/>
  <path d="M 48.72 104.4 L 53.04 104.4" fill="none" stroke="currentColor" stroke-width="2.88" stroke-linecap="round"/>
  <path d="M 53.04 104.4 L 53.04 101.52" fill="none" stroke="currentColor" stroke-width="2.88" stroke-linecap="round"/>
  <path d="M 53.04 107.28 L 53.04 104.4" fill="none" stroke="currentColor" stroke-width="2.88" stroke-linecap="round"/>
  <path d="M 62.4 104.4 L 62.4 101.52" fill="none" stroke="currentColor" stroke-width="2.88" stroke-linecap="round"/>
  <path d="M 62.4 107.28 L 62.4 104.4" fill="none" stroke="currentColor" stroke-width="2.88" stroke-linecap="round"/>
  <path d="M 49.92 104.28 C 49.92 103.55 49.33 102.96 48.6 102.96 C 47.87 102.96 47.28 103.55 47.28 104.28 C 47.28 105.01 47.87 105.6 48.6 105.6 C 49.33 105.6 49.92 105.01 49.92 104.28" fill="none" stroke="currentColor" stroke-width="2.88" stroke-linecap="round"/>
  <path d="M 75.12 79.32 C 75.12 78.86 74.74 78.48 74.28 78.48 C 73.82 78.48 73.44 78.86 73.44 79.32 C 73.44 79.78 73.82 80.16 74.28 80.16 C 74.74 80.16 75.12 79.78 75.12 79.32" fill="none" stroke="currentColor" stroke-width="2.88" stroke-linecap="round"/>
  <path d="M 48.72 103.2 L 48.96 103.2 L 48.48 103.2 L 48.72 103.2 M 48.96 103.2 L 48.48 103.2 L 48.96 103.2 M 48.48 103.2 L 48.96 103.2 L 48.48 103.2" fill="currentColor" stroke="currentColor" stroke-width="2.88" stroke-linecap="round"/>
  <path d="M 48.96 103.2 L 48.48 103.2 L 49.2 103.2 L 48.96 103.2 M 48.48 103.2 L 49.2 103.2 L 48.24 103.2 L 48.48 103.2 M 49.2 103.2 L 48.24 103.2 L 49.2 103.2 M 48.24 103.2 L 49.2 103.2 L 48.24 103.2" fill="currentColor" stroke="currentColor" stroke-width="2.88" stroke-linecap="round"/>
  <path d="M 49.2 103.2 L 48.24 103.2 L 49.44 103.2 L 49.2 103.2 M 48.24 103.2 L 49.44 103.2 L 48 103.2 L 48.24 103.2" fill="currentColor" stroke="currentColor" stroke-width="2.88" stroke-linecap="round"/>
  <path d="M 49.44 103.2 L 48 103.2 L 49.44 103.44 L 49.44 103.2 M 48 103.2 L 49.44 103.44 L 48 103.44 L 48 103.2" fill="currentColor" stroke="currentColor" stroke-width="2.88" stroke-linecap="round"/>
  <path d="M 49.44 103.44 L 48 103.44 L 49.68 103.44 L 49.44 103.44 M 48 103.44 L 49.68 103.44 L 47.76 103.44 L 48 103.44 M 49.68 103.44 L 47.76 103.44 L 49.68 103.44 M 47.76 103.44 L 49.68 103.44 L 47.76 103.44" fill="currentColor" stroke="currentColor" stroke-width="2.88" stroke-linecap="round"/>
  <path d="M 49.68 103.44 L 47.76 103.44 L 49.68 103.68 L 49.68 103.44 M 47.76 103.44 L 49.68 103.68 L 47.76 103.68 L 47.76 103.44" fill="currentColor" stroke="currentColor" stroke-width="2.88" stroke-linecap="round"/>
  <path d="M 49.68 103.68 L 47.76 103.68 L 49.92 103.68 L 49.68 103.68 M 47.76 103.68 L 49.92 103.68 L 47.52 103.68 L 47.76 103.68" fill="currentColor" stroke="currentColor" stroke-width="2.88" stroke-linecap="round"/>
  <path d="M 49.92 103.68 L 47.52 103.68 L 49.92 103.92 L 49.92 103.68 M 47.52 103.68 L 49.92 103.92 L 47.52 103.92 L 47.52 103.68 M 49.92 103.92 L 47.52 103.92 L 49.92 103.92 M 47.52 103.92 L 49.92 103.92 L 47.52 103.92" fill="currentColor" stroke="currentColor" stroke-width="2.88" stroke-linecap="round"/>
  <path d="M 49.92 103.92 L 47.52 103.92 L 49.92 104.16 L 49.92 103.92 M 47.52 103.92 L 49.92 104.16 L 47.52 104.16 L 47.52 103.92" fill="currentColor" stroke="currentColor" stroke-width="2.88" stroke-linecap="round"/>
  <path d="M 49.92 104.16 L 47.52 104.16 L 50.16 104.16 L 49.92 104.16 M 47.52 104.16 L 50.16 104.16 L 47.28 104.16 L 47.52 104.16" fill="currentColor" stroke="currentColor" stroke-width="2.88" stroke-linecap="round"/>
  <path d="M 50.16 104.16 L 47.28 104.16 L 50.16 104.4 L 50.16 104.16 M 47.28 104.16 L 50.16 104.4 L 47.28 104.4 L 47.28 104.16 M 50.16 104.4 L 47.28 104.4 L 50.16 104.4 M 47.28 104.4 L 50.16 104.4 L 47.28 104.4" fill="currentColor" stroke="currentColor" stroke-width="2.88" stroke-linecap="round"/>
  <path d="M 50.16 104.4 L 47.28 104.4 L 50.16 104.64 L 50.16 104.4 M 47.28 104.4 L 50.16 104.64 L 47.28 104.64 L 47.28 104.4 M 50.16 104.64 L 47.28 104.64 L 50.16 104.64 M 47.28 104.64 L 50.16 104.64 L 47.28 104.64" fill="currentColor" stroke="currentColor" stroke-width="2.88" stroke-linecap="round"/>
  <path d="M 50.16 104.64 L 47.28 104.64 L 49.92 104.88 L 50.16 104.64 M 47.28 104.64 L 49.92 104.88 L 47.52 104.88 L 47.28 104.64 M 49.92 104.88 L 47.52 104.88 L 49.92 104.88 M 47.52 104.88 L 49.92 104.88 L 47.52 104.88" fill="currentColor" stroke="currentColor" stroke-width="2.88" stroke-linecap="round"/>
  <path d="M 49.92 104.88 L 47.52 104.88 L 49.92 105.12 L 49.92 104.88 M 47.52 104.88 L 49.92 105.12 L 47.52 105.12 L 47.52 104.88 M 49.92 105.12 L 47.52 105.12 L 49.92 105.12 M 47.52 105.12 L 49.92 105.12 L 47.52 105.12" fill="currentColor" stroke="currentColor" stroke-width="2.88" stroke-linecap="round"/>
  <path d="M 49.92 105.12 L 47.52 105.12 L 49.68 105.36 L 49.92 105.12 M 47.52 105.12 L 49.68 105.36 L 47.76 105.36 L 47.52 105.12 M 49.68 105.36 L 47.76 105.36 L 49.68 105.36 M 47.76 105.36 L 49.68 105.36 L 47.76 105.36" fill="currentColor" stroke="currentColor" stroke-width="2.88" stroke-linecap="round"/>
  <path d="M 49.68 105.36 L 47.76 105.36 L 49.68 105.6 L 49.68 105.36 M 47.76 105.36 L 49.68 105.6 L 47.76 105.6 L 47.76 105.36" fill="currentColor" stroke="currentColor" stroke-width="2.88" stroke-linecap="round"/>
  <path d="M 49.68 105.6 L 47.76 105.6 L 49.44 105.6 L 49.68 105.6 M 47.76 105.6 L 49.44 105.6 L 48 105.6 L 47.76 105.6 M 49.44 105.6 L 48 105.6 L 49.44 105.6 M 48 105.6 L 49.44 105.6 L 48 105.6" fill="currentColor" stroke="currentColor" stroke-width="2.88" stroke-linecap="round"/>
  <path d="M 49.44 105.6 L 48 105.6 L 49.2 105.6 L 49.44 105.6 M 48 105.6 L 49.2 105.6 L 48.24 105.6 L 48 105.6" fill="currentColor" stroke="currentColor" stroke-width="2.88" stroke-linecap="round"/>
  <path d="M 49.2 105.6 L 48.24 105.6 L 49.2 105.84 L 49.2 105.6 M 48.24 105.6 L 49.2 105.84 L 48.24 105.84 L 48.24 105.6" fill="currentColor" stroke="currentColor" stroke-width="2.88" stroke-linecap="round"/>
  <path d="M 49.2 105.84 L 48.24 105.84 L 48.96 105.84 L 49.2 105.84 M 48.24 105.84 L 48.96 105.84 L 48.48 105.84 L 48.24 105.84 M 48.96 105.84 L 48.48 105.84 L 48.72 105.84 L 48.96 105.84" fill="currentColor" stroke="currentColor" stroke-width="2.88" stroke-linecap="round"/>
  <path d="M 48.48 105.84 L 48.96 105.84 L 48.48 105.84 M 48.96 105.84 L 48.96 105.84 L 48.48 105.84 L 48.96 105.84" fill="currentColor" stroke="currentColor" stroke-width="2.88" stroke-linecap="round"/>
  <path d="M 74.16 78.48 L 74.16 78.48 L 74.4 78.48 L 74.16 78.48 L 74.4 78.48 L 74.16 78.48 M 74.4 78.48 L 74.4 78.48 L 74.16 78.48 L 74.4 78.48" fill="currentColor" stroke="currentColor" stroke-width="2.88" stroke-linecap="round"/>
  <path d="M 74.4 78.48 L 74.16 78.48 L 74.64 78.48 L 74.4 78.48 M 74.16 78.48 L 74.64 78.48 L 73.92 78.48 L 74.16 78.48 M 74.64 78.48 L 73.92 78.48 L 74.64 78.48 M 73.92 78.48 L 74.64 78.48 L 73.92 78.48" fill="currentColor" stroke="currentColor" stroke-width="2.88" stroke-linecap="round"/>
  <path d="M 74.64 78.48 L 73.92 78.48 L 74.64 78.72 L 74.64 78.48 M 73.92 78.48 L 74.64 78.72 L 73.92 78.72 L 73.92 78.48" fill="currentColor" stroke="currentColor" stroke-width="2.88" stroke-linecap="round"/>
  <path d="M 74.64 78.72 L 73.92 78.72 L 74.88 78.72 L 74.64 78.72 M 73.92 78.72 L 74.88 78.72 L 73.68 78.72 L 73.92 78.72 M 74.88 78.72 L 73.68 78.72 L 74.88 78.72 M 73.68 78.72 L 74.88 78.72 L 73.68 78.72 M 74.88 78.72 L 74.88 78.72 L 73.68 78.72 L 74.88 78.72 L 73.68 78.72 L 74.88 78.72" fill="currentColor" stroke="currentColor" stroke-width="2.88" stroke-linecap="round"/>
  <path d="M 74.88 78.72 L 73.68 78.72 L 75.12 78.96 L 74.88 78.72 M 73.68 78.72 L 75.12 78.96 L 73.44 78.96 L 73.68 78.72 M 75.12 78.96 L 73.44 78.96 L 75.12 78.96 M 73.44 78.96 L 75.12 78.96 L 73.44 78.96 M 75.12 78.96 L 75.12 78.96 L 73.44 78.96 L 75.12 78.96 L 73.44 78.96 L 75.12 78.96" fill="currentColor" stroke="currentColor" stroke-width="2.88" stroke-linecap="round"/>
  <path d="M 75.12 78.96 L 73.44 78.96 L 75.12 79.2 L 75.12 78.96 M 73.44 78.96 L 75.12 79.2 L 73.44 79.2 L 73.44 78.96 M 75.12 79.2 L 73.44 79.2 L 75.12 79.2 M 73.44 79.2 L 75.12 79.2 L 73.44 79.2 M 75.12 79.2 L 75.12 79.2 L 73.44 79.2 L 75.12 79.2 L 73.44 79.2 L 75.12 79.2" fill="currentColor" stroke="currentColor" stroke-width="2.88" stroke-linecap="round"/>
  <path d="M 75.12 79.2 L 73.44 79.2 L 75.12 79.44 L 75.12 79.2 M 73.44 79.2 L 75.12 79.44 L 73.44 79.44 L 73.44 79.2" fill="currentColor" stroke="currentColor" stroke-width="2.88" stroke-linecap="round"/>
  <path d="M 75.36 79.44 L 75.36 79.44 L 73.44 79.44 L 75.36 79.44 L 73.44 79.44 L 75.12 79.44 L 75.36 79.44 M 73.44 79.44 L 75.12 79.44 L 73.44 79.44" fill="currentColor" stroke="currentColor" stroke-width="2.88" stroke-linecap="round"/>
  <path d="M 73.44 79.44 L 75.36 79.44 L 75.12 79.44 L 73.44 79.44" fill="currentColor" stroke="currentColor" stroke-width="2.88" stroke-linecap="round"/>
  <path d="M 75.12 79.44 L 73.44 79.44 L 75.12 79.68 L 75.12 79.44 M 73.44 79.44 L 75.12 79.68 L 73.44 79.68 L 73.44 79.44 M 75.12 79.68 L 73.44 79.68 L 75.12 79.68 M 73.44 79.68 L 75.12 79.68 L 73.44 79.68" fill="currentColor" stroke="currentColor" stroke-width="2.88" stroke-linecap="round"/>
  <path d="M 75.12 79.68 L 73.44 79.68 L 75.12 79.92 L 75.12 79.68 M 73.44 79.68 L 75.12 79.92 L 73.44 79.92 L 73.44 79.68 M 75.12 79.92 L 73.44 79.92 L 75.12 79.92 M 73.44 79.92 L 75.12 79.92 L 73.44 79.92 M 75.12 79.92 L 75.12 79.92 L 73.44 79.92 L 75.12 79.92 L 73.44 79.92 L 75.12 79.92 M 73.44 79.92 L 75.12 79.92 L 73.44 79.92 M 75.12 79.92 L 75.12 79.92 L 73.44 79.92 L 75.12 79.92" fill="currentColor" stroke="currentColor" stroke-width="2.88" stroke-linecap="round"/>
  <path d="M 75.12 79.92 L 73.44 79.92 L 74.88 80.16 L 75.12 79.92 M 73.44 79.92 L 74.88 80.16 L 73.68 80.16 L 73.44 79.92 M 74.88 80.16 L 73.68 80.16 L 74.88 80.16 M 73.68 80.16 L 74.88 80.16 L 73.68 80.16 M 74.88 80.16 L 74.88 80.16 L 73.68 80.16 L 74.88 80.16 L 73.68 80.16 L 74.88 80.16" fill="currentColor" stroke="currentColor" stroke-width="2.88" stroke-linecap="round"/>
  <path d="M 74.88 80.16 L 73.68 80.16 L 74.64 80.16 L 74.88 80.16 M 73.68 80.16 L 74.64 80.16 L 73.92 80.16 L 73.68 80.16" fill="currentColor" stroke="currentColor" stroke-width="2.88" stroke-linecap="round"/>
  <path d="M 74.64 80.16 L 73.92 80.16 L 74.64 80.4 L 74.64 80.16 M 73.92 80.16 L 74.64 80.4 L 73.92 80.4 L 73.92 80.16 M 74.64 80.4 L 73.92 80.4 L 74.64 80.4 M 73.92 80.4 L 74.64 80.4 L 73.92 80.4" fill="currentColor" stroke="currentColor" stroke-width="2.88" stroke-linecap="round"/>
  <path d="M 74.64 80.4 L 73.92 80.4 L 74.4 80.4 L 74.64 80.4 M 73.92 80.4 L 74.4 80.4 L 74.16 80.4 L 73.92 80.4 M 74.4 80.4 L 74.16 80.4 L 74.4 80.4 M 74.16 80.4 L 74.4 80.4 L 74.16 80.4 M 74.4 80.4 L 74.4 80.4 L 74.16 80.4 L 74.4 80.4" fill="currentColor" stroke="currentColor" stroke-width="2.88" stroke-linecap="round"/>
  <path d="M 53.04 101.52 L 62.4 101.52" fill="none" stroke="currentColor" stroke-width="2.88" stroke-linecap="round"/>
  <path d="M 62.4 107.28 L 53.04 107.28" fill="none" stroke="currentColor" stroke-width="2.88" stroke-linecap="round"/>
  <path d="M 62.4 104.4 L 64.8 104.4" fill="none" stroke="currentColor" stroke-width="2.88" stroke-linecap="round"/>
  <path d="M 64.8 104.4 L 64.8 82.08" fill="none" stroke="currentColor" stroke-width="2.88" stroke-linecap="round"/>
  <path d="M 64.8 82.08 L 70.56 82.08" fill="none" stroke="currentColor" stroke-width="2.88" stroke-linecap="round"/>
  <path d="M 64.8 82.08 L 59.04 82.08" fill="none" stroke="currentColor" stroke-width="2.88" stroke-linecap="round"/>
  <path d="M 70.56 82.08 L 70.56 76.8" fill="none" stroke="currentColor" stroke-width="2.88" stroke-linecap="round"/>
  <path d="M 59.04 82.08 L 59.04 76.8" fill="none" stroke="currentColor" stroke-width="2.88" stroke-linecap="round"/>
  <path d="M 59.04 76.8 L 70.56 76.8" fill="none" stroke="currentColor" stroke-width="2.88" stroke-linecap="round"/>
  <path d="M 45.84 114.96 L 51.84 120.72" fill="none" stroke="currentColor" stroke-width="2.88" stroke-linecap="round"/>
  <path d="M 45.84 119.76 L 51.84 125.52" fill="none" stroke="currentColor" stroke-width="2.88" stroke-linecap="round"/>
  <path d="M 45.84 110.16 L 51.84 116.16" fill="none" stroke="currentColor" stroke-width="2.88" stroke-linecap="round"/>
  <path d="M 56.16 91.68 L 56.16 87.36" fill="none" stroke="currentColor" stroke-width="2.88" stroke-linecap="round"/>
  <path d="M 56.16 87.36 L 48.72 87.36" fill="none" stroke="currentColor" stroke-width="2.88" stroke-linecap="round"/>
  <path d="M 59.04 79.44 L 48.72 79.44" fill="none" stroke="currentColor" stroke-width="2.88" stroke-linecap="round"/>
  <path d="M 70.56 79.44 L 74.4 79.44" fill="none" stroke="currentColor" stroke-width="2.88" stroke-linecap="round"/>
  <path d="M 74.4 79.44 L 74.4 74.4" fill="none" stroke="currentColor" stroke-width="2.88" stroke-linecap="round"/>
  <path d="M 74.4 79.44 L 74.4 84.48" fill="none" stroke="currentColor" stroke-width="2.88" stroke-linecap="round"/>
  <path d="M 74.4 74.4 L 73.2 74.4" fill="none" stroke="currentColor" stroke-width="2.88" stroke-linecap="round"/>
  <path d="M 74.4 84.48 L 73.2 84.48" fill="none" stroke="currentColor" stroke-width="2.88" stroke-linecap="round"/>
  <path d="M 48.6 79.2 C 47.72 79.2 46.95 79.76 46.67 80.59 C 46.39 81.42 46.67 82.34 47.37 82.87 C 48.07 83.39 49.02 83.42 49.75 82.93" fill="none" stroke="currentColor" stroke-width="2.88" stroke-linecap="round"/>
  <path d="M 49.75 83.63 C 49.02 83.14 48.07 83.17 47.37 83.69 C 46.67 84.22 46.39 85.14 46.67 85.97 C 46.95 86.8 47.72 87.36 48.6 87.36" fill="none" stroke="currentColor" stroke-width="2.88" stroke-linecap="round"/>
  <path d="M 67.2 50.04 C 67.2 48.65 66.07 47.52 64.68 47.52 C 63.29 47.52 62.16 48.65 62.16 50.04 C 62.16 51.43 63.29 52.56 64.68 52.56 C 66.07 52.56 67.2 51.43 67.2 50.04" fill="none" stroke="currentColor" stroke-width="2.88" stroke-linecap="round"/>
  <path d="M 66.48 48.48 L 62.88 52.08" fill="none" stroke="currentColor" stroke-width="2.88" stroke-linecap="round"/>
  <path d="M 66.48 52.08 L 62.88 48.48" fill="none" stroke="currentColor" stroke-width="2.88" stroke-linecap="round"/>
  <text x="39.36" y="30" font-family="Arial, Helvetica, sans-serif" font-size="3.51" fill="currentColor">M</text>
  <text x="38.4" y="22.8" font-family="Arial, Helvetica, sans-serif" font-size="3.51" fill="currentColor">TC</text>
  <text x="61.2" y="80.64" font-family="Arial, Helvetica, sans-serif" font-size="3.51" fill="currentColor">DPF</text>
  <text x="44.4" y="77.76" font-family="Arial, Helvetica, sans-serif" font-size="3.51" fill="currentColor">TI</text>
  <text x="55.44" y="105.6" font-family="Arial, Helvetica, sans-serif" font-size="3.51" fill="currentColor">ST</text>
</svg>
