<svg xmlns="http://www.w3.org/2000/svg" viewBox="0 0 69.6 144.72">
  <path d="M 41.76 9.6 L 41.76 23.04" fill="none" stroke="currentColor" stroke-width="2.88" stroke-linecap="round"/>
  <path d="M 41.76 33.84 L 41.76 135.12" fill="none" stroke="currentColor" stroke-width="2.88" stroke-linecap="round"/>
  <path d="M 41.76 23.04 L 43.2 21.6" fill="none" stroke="currentColor" stroke-width="2.88" stroke-linecap="round"/>
  <path d="M 41.76 23.04 L 40.08 21.6" fill="none" stroke="currentColor" stroke-width="2.88" stroke-linecap="round"/>
  <path d="M 40.08 24.48 L 41.76 23.04" fill="none" stroke="currentColor" stroke-width="2.88" stroke-linecap="round"/>
  <path d="M 43.2 24.48 L 41.76 23.04" fill="none" stroke="currentColor" stroke-width="2.88" stroke-linecap="round"/>
  <path d="M 42.96 32.52 C 42.96 31.79 42.37 31.2 41.64 31.2 C 40.91 31.2 40.32 31.79 40.32 32.52 C 40.32 33.25 40.91 33.84 41.64 33.84 C 42.37 33.84 42.96 33.25 42.96 32.52" fill="none" stroke="currentColor" stroke-width="2.88" stroke-linecap="round"/>
  <path d="M 41.04 31.44 L 35.52 23.04" fill="none" stroke="currentColor" stroke-width="2.88" stroke-linecap="round"/>
  <path d="M 32.88 48.96 L 41.52 48.96" fill="none" stroke="currentColor" stroke-width="2.88" stroke-linecap="round"/>
  <path d="M 32.88 48.96 L 32.88 46.56" fill="none" stroke="currentColor" stroke-width="2.88" stroke-linecap="round"/>
  <path d="M 32.88 51.12 L 32.88 48.96" fill="none" stroke="currentColor" stroke-width="2.88" stroke-linecap="round"/>
  <path d="M 32.88 42 L 21.84 48.96" fill="none" stroke="currentColor" stroke-width="2.88" stroke-linecap="round"/>
  <path d="M 21.84 48.96 L 11.76 48.96" fill="none" stroke="currentColor" stroke-width="2.88" stroke-linecap="round"/>
  <path d="M 11.76 48.96 L 11.76 46.56" fill="none" stroke="currentColor" stroke-width="2.88" stroke-linecap="round"/>
  <path d="M 11.76 51.12 L 11.76 48.96" fill="none" stroke="currentColor" stroke-width="2.88" stroke-linecap="round"/>
  <path d="M 10.8 49.92 L 10.8 47.76" fill="none" stroke="currentColor" stroke-width="2.88" stroke-linecap="round"/>
  <path d="M 9.6 49.68 L 9.6 48.24" fill="none" stroke="currentColor" stroke-width="2.88" stroke-linecap="round"/>
  <path d="M 27.36 45.36 L 27.36 45.36" fill="none" stroke="currentColor" stroke-width="2.88" stroke-linecap="round"/>
  <path d="M 27.36 29.76 L 27.36 29.76" fill="none" stroke="currentColor" stroke-width="2.88" stroke-linecap="round"/>
  <path d="M 27.36 29.76 L 27.36 29.76" fill="none" stroke="currentColor" stroke-width="2.88" stroke-linecap="round"/>
  <path d="M 30.48 29.76 L 30.48 29.76" fill="none" stroke="currentColor" stroke-width="2.88" stroke-linecap="round"/>
  <path d="M 33.36 29.76 L 33.36 29.76" fill="none" stroke="currentColor" stroke-width="2.88" stroke-linecap="round"/>
  <path d="M 39.84 29.76 L 39.84 29.76" fill="none" stroke="currentColor" stroke-width="2.88" stroke-linecap="round"/>
  <path d="M 31.92 32.4 L 33.84 29.04" fill="none" stroke="currentColor" stroke-width="2.88" stroke-linecap="round"/>
  <path d="M 31.92 32.4 L 30 29.04" fill="none" stroke="currentColor" stroke-width="2.88" stroke-linecap="round"/>
  <path d="M 30 29.04 L 33.84 29.04" fill="none" stroke="currentColor" stroke-width="2.88" stroke-linecap="round"/>
  <path d="M 41.52 48.96 L 48.24 48.96" fill="none" stroke="currentColor" stroke-width="2.88" stroke-linecap="round"/>
  <path d="M 50.16 48.96 L 54.96 48.96" fill="none" stroke="currentColor" stroke-width="2.88" stroke-linecap="round"/>
  <path d="M 48.24 48.96 L 48.24 46.56" fill="none" stroke="currentColor" stroke-width="2.88" stroke-linecap="round"/>
  <path d="M 50.16 48.96 L 50.16 46.56" fill="none" stroke="currentColor" stroke-width="2.88" stroke-linecap="round"/>
  <path d="M 48.24 51.12 L 48.24 48.96" fill="none" stroke="currentColor" stroke-width="2.88" stroke-linecap="round"/>
  <path d="M 50.16 51.12 L 50.16 48.96" fill="none" stroke="currentColor" stroke-width="2.88" stroke-linecap="round"/>
  <path d="M 38.64 116.64 L 44.64 122.4" fill="none" stroke="currentColor" stroke-width="2.88" stroke-linecap="round"/>
  <path d="M 38.64 121.2 L 44.64 127.2" fill="none" stroke="currentColor" stroke-width="2.88" stroke-linecap="round"/>
  <path d="M 38.64 111.84 L 44.64 117.84" fill="none" stroke="currentColor" stroke-width="2.88" stroke-linecap="round"/>
  <path d="M 60 48.84 C 60 47.45 58.87 46.32 57.48 46.32 C 56.09 46.32 54.96 47.45 54.96 48.84 C 54.96 50.23 56.09 51.36 57.48 51.36 C 58.87 51.36 60 50.23 60 48.84" fill="none" stroke="currentColor" stroke-width="2.88" stroke-linecap="round"/>
  <path d="M 59.28 47.04 L 55.68 50.64" fill="none" stroke="currentColor" stroke-width="2.88" stroke-linecap="round"/>
  <path d="M 59.28 50.64 L 55.68 47.04" fill="none" stroke="currentColor" stroke-width="2.88" stroke-linecap="round"/>
</svg>
