<svg xmlns="http://www.w3.org/2000/svg" viewBox="0 0 69.36 144.48">
  <path d="M 41.52 9.6 L 41.52 23.28" fill="none" stroke="currentColor" stroke-width="2.88" stroke-linecap="round"/>
  <path d="M 41.52 34.08 L 41.52 134.88" fill="none" stroke="currentColor" stroke-width="2.88" stroke-linecap="round"/>
  <path d="M 41.52 23.28 L 43.68 23.28" fill="none" stroke="currentColor" stroke-width="2.88" stroke-linecap="round"/>
  <path d="M 39.6 23.28 L 41.52 23.28" fill="none" stroke="currentColor" stroke-width="2.88" stroke-linecap="round"/>
  <path d="M 42.72 24.36 C 42.72 23.63 42.13 23.04 41.4 23.04 C 40.67 23.04 40.08 23.63 40.08 24.36 C 40.08 25.09 40.67 25.68 41.4 25.68 C 42.13 25.68 42.72 25.09 42.72 24.36" fill="none" stroke="currentColor" stroke-width="2.88" stroke-linecap="round"/>
  <path d="M 42.72 32.52 C 42.72 31.79 42.13 31.2 41.4 31.2 C 40.67 31.2 40.08 31.79 40.08 32.52 C 40.08 33.25 40.67 33.84 41.4 33.84 C 42.13 33.84 42.72 33.25 42.72 32.52" fill="none" stroke="currentColor" stroke-width="2.88" stroke-linecap="round"/>
  <path d="M 40.8 31.68 L 35.52 23.28" fill="none" stroke="currentColor" stroke-width="2.88" stroke-linecap="round"/>
  <path d="M 39.12 28.8 L 38.4 29.28" fill="none" stroke="currentColor" stroke-width="2.88" stroke-linecap="round"/>
  <path d="M 37.2 25.92 L 36.48 26.4" fill="none" stroke="currentColor" stroke-width="2.88" stroke-linecap="round"/>
  <path d="M 32.88 48.96 L 41.52 48.96" fill="none" stroke="currentColor" stroke-width="2.88" stroke-linecap="round"/>
  <path d="M 32.88 48.96 L 32.88 46.8" fill="none" stroke="currentColor" stroke-width="2.88" stroke-linecap="round"/>
  <path d="M 32.88 51.36 L 32.88 48.96" fill="none" stroke="currentColor" stroke-width="2.88" stroke-linecap="round"/>
  <path d="M 32.88 42 L 21.84 48.96" fill="none" stroke="currentColor" stroke-width="2.88" stroke-linecap="round"/>
  <path d="M 21.84 48.96 L 11.76 48.96" fill="none" stroke="currentColor" stroke-width="2.88" stroke-linecap="round"/>
  <path d="M 11.76 48.96 L 11.76 46.8" fill="none" stroke="currentColor" stroke-width="2.88" stroke-linecap="round"/>
  <path d="M 11.76 51.36 L 11.76 48.96" fill="none" stroke="currentColor" stroke-width="2.88" stroke-linecap="round"/>
  <path d="M 10.56 50.16 L 10.56 48" fill="none" stroke="currentColor" stroke-width="2.88" stroke-linecap="round"/>
  <path d="M 9.6 49.68 L 9.6 48.24" fill="none" stroke="currentColor" stroke-width="2.88" stroke-linecap="round"/>
  <path d="M 27.36 45.6 L 27.36 45.6" fill="none" stroke="currentColor" stroke-width="2.88" stroke-linecap="round"/>
  <path d="M 27.36 30 L 27.36 30" fill="none" stroke="currentColor" stroke-width="2.88" stroke-linecap="round"/>
  <path d="M 27.36 30 L 27.36 30" fill="none" stroke="currentColor" stroke-width="2.88" stroke-linecap="round"/>
  <path d="M 30.24 30 L 30.24 30" fill="none" stroke="currentColor" stroke-width="2.88" stroke-linecap="round"/>
  <path d="M 33.36 30 L 33.36 30" fill="none" stroke="currentColor" stroke-width="2.88" stroke-linecap="round"/>
  <path d="M 39.84 30 L 39.84 30" fill="none" stroke="currentColor" stroke-width="2.88" stroke-linecap="round"/>
  <path d="M 31.92 32.4 L 33.84 29.04" fill="none" stroke="currentColor" stroke-width="2.88" stroke-linecap="round"/>
  <path d="M 31.92 32.4 L 30 29.04" fill="none" stroke="currentColor" stroke-width="2.88" stroke-linecap="round"/>
  <path d="M 30 29.04 L 33.84 29.04" fill="none" stroke="currentColor" stroke-width="2.88" stroke-linecap="round"/>
  <path d="M 41.52 48.96 L 48 48.96" fill="none" stroke="currentColor" stroke-width="2.88" stroke-linecap="round"/>
  <path d="M 50.16 48.96 L 54.96 48.96" fill="none" stroke="currentColor" stroke-width="2.88" stroke-linecap="round"/>
  <path d="M 48 48.96 L 48 46.8" fill="none" stroke="currentColor" stroke-width="2.88" stroke-linecap="round"/>
  <path d="M 50.16 48.96 L 50.16 46.8" fill="none" stroke="currentColor" stroke-width="2.88" stroke-linecap="round"/>
  <path d="M 48 51.36 L 48 48.96" fill="none" stroke="currentColor" stroke-width="2.88" stroke-linecap="round"/>
  <path d="M 50.16 51.36 L 50.16 48.96" fill="none" stroke="currentColor" stroke-width="2.88" stroke-linecap="round"/>
  <path d="M 59.76 48.84 C 59.76 47.45 58.63 46.32 57.24 46.32 C 55.85 46.32 54.72 47.45 54.72 48.84 C 54.72 50.23 55.85 51.36 57.24 51.36 C 58.63 51.36 59.76 50.23 59.76 48.84" fill="none" stroke="currentColor" stroke-width="2.88" stroke-linecap="round"/>
  <path d="M 59.28 47.28 L 55.68 50.88" fill="none" stroke="currentColor" stroke-width="2.88" stroke-linecap="round"/>
  <path d="M 59.28 50.88 L 55.68 47.28" fill="none" stroke="currentColor" stroke-width="2.88" stroke-linecap="round"/>
  <path d="M 36.48 26.4 L 38.4 29.28" fill="none" stroke="currentColor" stroke-width="2.88" stroke-linecap="round"/>
  <path d="M 39.12 28.8 L 37.2 25.92" fill="none" stroke="currentColor" stroke-width="2.88" stroke-linecap="round"/>
  <path d="M 37.2 25.92 L 37.44 26.4 L 36.48 26.4 L 37.2 25.92" fill="currentColor" stroke="currentColor" stroke-width="2.88" stroke-linecap="round"/>
  <path d="M 36.48 26.4 L 38.16 28.8 L 39.12 28.8 L 36.48 26.4 M 38.16 28.8 L 39.12 28.8 L 38.4 29.28 L 38.16 28.8" fill="currentColor" stroke="currentColor" stroke-width="2.88" stroke-linecap="round"/>
  <path d="M 36.48 26.4 L 37.44 26.4 L 39.12 28.8 L 36.48 26.4" fill="currentColor" stroke="currentColor" stroke-width="2.88" stroke-linecap="round"/>
</svg>
