<svg xmlns="http://www.w3.org/2000/svg" viewBox="0 0 33.57 144.72">
  <path d="M 9.6 114.96 L 15.36 120.72" fill="none" stroke="currentColor" stroke-width="2.88" stroke-linecap="round"/>
  <path d="M 9.6 119.76 L 15.36 125.52" fill="none" stroke="currentColor" stroke-width="2.88" stroke-linecap="round"/>
  <path d="M 9.6 110.16 L 15.36 116.16" fill="none" stroke="currentColor" stroke-width="2.88" stroke-linecap="round"/>
  <path d="M 13.32 84 C 12.19 84 11.28 84.91 11.28 86.04 C 11.28 87.17 12.19 88.08 13.32 88.08" fill="none" stroke="currentColor" stroke-width="2.88" stroke-linecap="round"/>
  <path d="M 16.2 60.48 C 17.33 60.48 18.24 59.57 18.24 58.44 C 18.24 57.31 17.33 56.4 16.2 56.4" fill="none" stroke="currentColor" stroke-width="2.88" stroke-linecap="round"/>
  <path d="M 13.32 87.84 C 12.19 87.84 11.28 88.75 11.28 89.88 C 11.28 91.01 12.19 91.92 13.32 91.92" fill="none" stroke="currentColor" stroke-width="2.88" stroke-linecap="round"/>
  <path d="M 16.2 56.64 C 17.33 56.64 18.24 55.73 18.24 54.6 C 18.24 53.47 17.33 52.56 16.2 52.56" fill="none" stroke="currentColor" stroke-width="2.88" stroke-linecap="round"/>
  <path d="M 12.48 103.68 L 12.48 135.12" fill="none" stroke="currentColor" stroke-width="2.88" stroke-linecap="round"/>
  <path d="M 12.48 72.48 L 12.48 103.68" fill="none" stroke="currentColor" stroke-width="2.88" stroke-linecap="round"/>
  <path d="M 12.48 41.04 L 12.48 72.48" fill="none" stroke="currentColor" stroke-width="2.88" stroke-linecap="round"/>
  <path d="M 12.48 9.6 L 12.48 41.04" fill="none" stroke="currentColor" stroke-width="2.88" stroke-linecap="round"/>
  <path d="M 12.48 56.64 L 16.32 56.64" fill="none" stroke="currentColor" stroke-width="2.88" stroke-linecap="round"/>
  <text x="20.4" y="89.28" font-family="Arial, Helvetica, sans-serif" font-size="3.51" fill="currentColor">TI</text>
  <text x="19.68" y="57.84" font-family="Arial, Helvetica, sans-serif" font-size="3.51" fill="currentColor">TT</text>
</svg>
