<svg xmlns="http://www.w3.org/2000/svg" viewBox="0 0 37.44 144.48">
  <path d="M 9.6 9.6 L 9.6 134.88" fill="none" stroke="currentColor" stroke-width="2.88" stroke-linecap="round"/>
  <path d="M 9.6 48.96 L 16.08 48.96" fill="none" stroke="currentColor" stroke-width="2.88" stroke-linecap="round"/>
  <path d="M 18 48.96 L 23.04 48.96" fill="none" stroke="currentColor" stroke-width="2.88" stroke-linecap="round"/>
  <path d="M 16.08 48.96 L 16.08 46.8" fill="none" stroke="currentColor" stroke-width="2.88" stroke-linecap="round"/>
  <path d="M 18 48.96 L 18 46.8" fill="none" stroke="currentColor" stroke-width="2.88" stroke-linecap="round"/>
  <path d="M 16.08 51.36 L 16.08 48.96" fill="none" stroke="currentColor" stroke-width="2.88" stroke-linecap="round"/>
  <path d="M 18 51.36 L 18 48.96" fill="none" stroke="currentColor" stroke-width="2.88" stroke-linecap="round"/>
  <path d="M 27.84 48.84 C 27.84 47.45 26.71 46.32 25.32 46.32 C 23.93 46.32 22.8 47.45 22.8 48.84 C 22.8 50.23 23.93 51.36 25.32 51.36 C 26.71 51.36 27.84 50.23 27.84 48.84" fill="none" stroke="currentColor" stroke-width="2.88" stroke-linecap="round"/>
  <path d="M 27.12 47.28 L 23.76 50.88" fill="none" stroke="currentColor" stroke-width="2.88" stroke-linecap="round"/>
  <path d="M 27.12 50.88 L 23.76 47.28" fill="none" stroke="currentColor" stroke-width="2.88" stroke-linecap="round"/>
</svg>
