<svg xmlns="http://www.w3.org/2000/svg" viewBox="0 0 69.6 144.48">
  <path d="M 41.76 9.6 L 41.76 23.28" fill="none" stroke="currentColor" stroke-width="2.88" stroke-linecap="round"/>
  <path d="M 41.76 108.96 L 41.76 134.88" fill="none" stroke="currentColor" stroke-width="2.88" stroke-linecap="round"/>
  <path d="M 41.76 23.28 L 43.68 23.28" fill="none" stroke="currentColor" stroke-width="2.88" stroke-linecap="round"/>
  <path d="M 39.6 23.28 L 41.76 23.28" fill="none" stroke="currentColor" stroke-width="2.88" stroke-linecap="round"/>
  <path d="M 42.96 24.36 C 42.96 23.63 42.37 23.04 41.64 23.04 C 40.91 23.04 40.32 23.63 40.32 24.36 C 40.32 25.09 40.91 25.68 41.64 25.68 C 42.37 25.68 42.96 25.09 42.96 24.36" fill="none" stroke="currentColor" stroke-width="2.88" stroke-linecap="round"/>
  <path d="M 42.96 32.52 C 42.96 31.79 42.37 31.2 41.64 31.2 C 40.91 31.2 40.32 31.79 40.32 32.52 C 40.32 33.25 40.91 33.84 41.64 33.84 C 42.37 33.84 42.96 33.25 42.96 32.52" fill="none" stroke="currentColor" stroke-width="2.88" stroke-linecap="round"/>
  <path d="M 42.96 82.92 C 42.96 82.19 42.37 81.6 41.64 81.6 C 40.91 81.6 40.32 82.19 40.32 82.92 C 40.32 83.65 40.91 84.24 41.64 84.24 C 42.37 84.24 42.96 83.65 42.96 82.92" fill="none" stroke="currentColor" stroke-width="2.88" stroke-linecap="round"/>
  <path d="M 41.04 31.68 L 35.52 23.28" fill="none" stroke="currentColor" stroke-width="2.88" stroke-linecap="round"/>
  <path d="M 41.04 82.08 L 35.52 73.68" fill="none" stroke="currentColor" stroke-width="2.88" stroke-linecap="round"/>
  <path d="M 32.88 48.96 L 41.76 48.96" fill="none" stroke="currentColor" stroke-width="2.88" stroke-linecap="round"/>
  <path d="M 32.88 108.96 L 41.76 108.96" fill="none" stroke="currentColor" stroke-width="2.88" stroke-linecap="round"/>
  <path d="M 32.88 48.96 L 32.88 46.8" fill="none" stroke="currentColor" stroke-width="2.88" stroke-linecap="round"/>
  <path d="M 32.88 108.96 L 32.88 106.8" fill="none" stroke="currentColor" stroke-width="2.88" stroke-linecap="round"/>
  <path d="M 32.88 51.36 L 32.88 48.96" fill="none" stroke="currentColor" stroke-width="2.88" stroke-linecap="round"/>
  <path d="M 32.88 111.36 L 32.88 108.96" fill="none" stroke="currentColor" stroke-width="2.88" stroke-linecap="round"/>
  <path d="M 32.88 42 L 22.08 48.96" fill="none" stroke="currentColor" stroke-width="2.88" stroke-linecap="round"/>
  <path d="M 32.88 102 L 22.08 108.96" fill="none" stroke="currentColor" stroke-width="2.88" stroke-linecap="round"/>
  <path d="M 22.08 48.96 L 11.76 48.96" fill="none" stroke="currentColor" stroke-width="2.88" stroke-linecap="round"/>
  <path d="M 22.08 108.96 L 11.76 108.96" fill="none" stroke="currentColor" stroke-width="2.88" stroke-linecap="round"/>
  <path d="M 11.76 48.96 L 11.76 46.8" fill="none" stroke="currentColor" stroke-width="2.88" stroke-linecap="round"/>
  <path d="M 11.76 108.96 L 11.76 106.8" fill="none" stroke="currentColor" stroke-width="2.88" stroke-linecap="round"/>
  <path d="M 11.76 51.36 L 11.76 48.96" fill="none" stroke="currentColor" stroke-width="2.88" stroke-linecap="round"/>
  <path d="M 11.76 111.36 L 11.76 108.96" fill="none" stroke="currentColor" stroke-width="2.88" stroke-linecap="round"/>
  <path d="M 10.8 50.16 L 10.8 48" fill="none" stroke="currentColor" stroke-width="2.88" stroke-linecap="round"/>
  <path d="M 10.8 110.16 L 10.8 108" fill="none" stroke="currentColor" stroke-width="2.88" stroke-linecap="round"/>
  <path d="M 9.6 49.68 L 9.6 48.24" fill="none" stroke="currentColor" stroke-width="2.88" stroke-linecap="round"/>
  <path d="M 9.6 109.68 L 9.6 108.24" fill="none" stroke="currentColor" stroke-width="2.88" stroke-linecap="round"/>
  <path d="M 27.36 45.6 L 27.36 45.6" fill="none" stroke="currentColor" stroke-width="2.88" stroke-linecap="round"/>
  <path d="M 27.36 30 L 27.36 30" fill="none" stroke="currentColor" stroke-width="2.88" stroke-linecap="round"/>
  <path d="M 27.36 74.16 L 27.36 74.16" fill="none" stroke="currentColor" stroke-width="2.88" stroke-linecap="round"/>
  <path d="M 27.36 45.6 L 27.36 45.6" fill="none" stroke="currentColor" stroke-width="2.88" stroke-linecap="round"/>
  <path d="M 27.36 105.6 L 27.36 105.6" fill="none" stroke="currentColor" stroke-width="2.88" stroke-linecap="round"/>
  <path d="M 27.36 77.04 L 27.36 77.04" fill="none" stroke="currentColor" stroke-width="2.88" stroke-linecap="round"/>
  <path d="M 27.36 30 L 27.36 30" fill="none" stroke="currentColor" stroke-width="2.88" stroke-linecap="round"/>
  <path d="M 39.84 30 L 39.84 30" fill="none" stroke="currentColor" stroke-width="2.88" stroke-linecap="round"/>
  <path d="M 30 75.6 L 26.64 73.68" fill="none" stroke="currentColor" stroke-width="2.88" stroke-linecap="round"/>
  <path d="M 30 75.6 L 26.64 77.52" fill="none" stroke="currentColor" stroke-width="2.88" stroke-linecap="round"/>
  <path d="M 26.64 77.52 L 26.64 73.68" fill="none" stroke="currentColor" stroke-width="2.88" stroke-linecap="round"/>
  <path d="M 41.76 108.96 L 48.24 108.96" fill="none" stroke="currentColor" stroke-width="2.88" stroke-linecap="round"/>
  <path d="M 50.16 108.96 L 55.2 108.96" fill="none" stroke="currentColor" stroke-width="2.88" stroke-linecap="round"/>
  <path d="M 48.24 108.96 L 48.24 106.8" fill="none" stroke="currentColor" stroke-width="2.88" stroke-linecap="round"/>
  <path d="M 50.16 108.96 L 50.16 106.8" fill="none" stroke="currentColor" stroke-width="2.88" stroke-linecap="round"/>
  <path d="M 48.24 111.36 L 48.24 108.96" fill="none" stroke="currentColor" stroke-width="2.88" stroke-linecap="round"/>
  <path d="M 50.16 111.36 L 50.16 108.96" fill="none" stroke="currentColor" stroke-width="2.88" stroke-linecap="round"/>
  <path d="M 38.64 116.16 L 44.64 121.92" fill="none" stroke="currentColor" stroke-width="2.88" stroke-linecap="round"/>
  <path d="M 38.64 120.96 L 44.64 126.72" fill="none" stroke="currentColor" stroke-width="2.88" stroke-linecap="round"/>
  <path d="M 38.64 111.36 L 44.64 117.36" fill="none" stroke="currentColor" stroke-width="2.88" stroke-linecap="round"/>
  <path d="M 41.76 48.96 L 41.76 34.08" fill="none" stroke="currentColor" stroke-width="2.88" stroke-linecap="round"/>
  <path d="M 60 108.84 C 60 107.45 58.87 106.32 57.48 106.32 C 56.09 106.32 54.96 107.45 54.96 108.84 C 54.96 110.23 56.09 111.36 57.48 111.36 C 58.87 111.36 60 110.23 60 108.84" fill="none" stroke="currentColor" stroke-width="2.88" stroke-linecap="round"/>
  <path d="M 59.28 107.28 L 55.92 110.88" fill="none" stroke="currentColor" stroke-width="2.88" stroke-linecap="round"/>
  <path d="M 59.28 110.88 L 55.92 107.28" fill="none" stroke="currentColor" stroke-width="2.88" stroke-linecap="round"/>
  <path d="M 41.76 48.96 L 41.76 73.68" fill="none" stroke="currentColor" stroke-width="2.88" stroke-linecap="round"/>
  <path d="M 41.76 84.48 L 41.76 108.96" fill="none" stroke="currentColor" stroke-width="2.88" stroke-linecap="round"/>
  <path d="M 40.8 72.72 L 42.72 74.64" fill="none" stroke="currentColor" stroke-width="2.88" stroke-linecap="round"/>
  <path d="M 40.8 74.64 L 42.72 72.72" fill="none" stroke="currentColor" stroke-width="2.88" stroke-linecap="round"/>
</svg>
