<svg xmlns="http://www.w3.org/2000/svg" viewBox="0 0 58.32 35.04">
  <path d="M 9.6 17.52 L 41.04 17.52" fill="none" stroke="currentColor" stroke-width="2.88" stroke-linecap="round"/>
  <path d="M 41.04 9.6 L 41.04 25.44" fill="none" stroke="currentColor" stroke-width="2.88" stroke-linecap="round"/>
  <path d="M 48.72 9.6 L 48.72 25.44" fill="none" stroke="currentColor" stroke-width="2.88" stroke-linecap="round"/>
  <path d="M 41.04 9.6 L 44.88 9.6" fill="none" stroke="currentColor" stroke-width="2.88" stroke-linecap="round"/>
  <path d="M 44.88 9.6 L 48.72 9.6" fill="none" stroke="currentColor" stroke-width="2.88" stroke-linecap="round"/>
  <path d="M 44.88 25.44 L 41.04 25.44" fill="none" stroke="currentColor" stroke-width="2.88" stroke-linecap="round"/>
  <path d="M 48.72 25.44 L 44.88 25.44" fill="none" stroke="currentColor" stroke-width="2.88" stroke-linecap="round"/>
  <path d="M 44.88 19.44 L 44.88 25.44" fill="none" stroke="currentColor" stroke-width="2.88" stroke-linecap="round"/>
  <path d="M 44.88 9.6 L 44.88 15.6" fill="none" stroke="currentColor" stroke-width="2.88" stroke-linecap="round"/>
  <path d="M 41.76 15.6 L 48 15.6" fill="none" stroke="currentColor" stroke-width="2.88" stroke-linecap="round"/>
  <path d="M 41.76 19.44 L 48 19.44" fill="none" stroke="currentColor" stroke-width="2.88" stroke-linecap="round"/>
  <path d="M 41.28 22.32 L 48.48 12.72" fill="none" stroke="currentColor" stroke-width="2.88" stroke-linecap="round"/>
  <path d="M 48.48 12.72 L 46.8 13.92" fill="none" stroke="currentColor" stroke-width="2.88" stroke-linecap="round"/>
  <path d="M 48.48 12.72 L 47.76 14.64" fill="none" stroke="currentColor" stroke-width="2.88" stroke-linecap="round"/>
  <path d="M 46.8 13.92 L 47.28 14.4" fill="none" stroke="currentColor" stroke-width="2.88" stroke-linecap="round"/>
  <path d="M 47.76 14.64 L 47.28 14.4" fill="none" stroke="currentColor" stroke-width="2.88" stroke-linecap="round"/>
  <path d="M 48.48 12.72 L 48 13.92 L 46.8 13.92 L 48.48 12.72" fill="currentColor" stroke="currentColor" stroke-width="2.88" stroke-linecap="round"/>
  <path d="M 46.8 13.92 L 47.28 14.4 L 48 14.4 L 46.8 13.92 M 47.28 14.4 L 48 14.4 L 47.76 14.64 L 47.28 14.4" fill="currentColor" stroke="currentColor" stroke-width="2.88" stroke-linecap="round"/>
  <path d="M 46.8 13.92 L 48 13.92 L 48 14.4 L 46.8 13.92" fill="currentColor" stroke="currentColor" stroke-width="2.88" stroke-linecap="round"/>
</svg>
