<svg xmlns="http://www.w3.org/2000/svg" viewBox="0 0 82.08 50.64">
  <path d="M 9.6 21.36 L 25.44 21.36" fill="none" stroke="currentColor" stroke-width="2.88" stroke-linecap="round"/>
  <path d="M 9.6 29.28 L 25.44 29.28" fill="none" stroke="currentColor" stroke-width="2.88" stroke-linecap="round"/>
  <path d="M 56.64 25.44 L 72.48 25.44" fill="none" stroke="currentColor" stroke-width="2.88" stroke-linecap="round"/>
  <path d="M 9.6 29.28 L 15.84 30.96" fill="none" stroke="currentColor" stroke-width="2.88" stroke-linecap="round"/>
  <path d="M 15.84 21.36 L 9.6 19.92" fill="none" stroke="currentColor" stroke-width="2.88" stroke-linecap="round"/>
  <path d="M 15.84 27.6 L 9.6 29.28" fill="none" stroke="currentColor" stroke-width="2.88" stroke-linecap="round"/>
  <path d="M 9.6 23.04 L 15.84 21.36" fill="none" stroke="currentColor" stroke-width="2.88" stroke-linecap="round"/>
  <path d="M 15.84 27.6 L 15.84 30.96" fill="none" stroke="currentColor" stroke-width="2.88" stroke-linecap="round"/>
  <path d="M 9.6 23.04 L 9.6 19.92" fill="none" stroke="currentColor" stroke-width="2.88" stroke-linecap="round"/>
  <path d="M 15.84 27.6 L 15.84 29.28 L 9.6 29.28 L 15.84 27.6 M 15.84 29.28 L 9.6 29.28 L 15.84 30.96 L 15.84 29.28" fill="currentColor" stroke="currentColor" stroke-width="2.88" stroke-linecap="round"/>
  <path d="M 9.6 19.92 L 15.84 21.36 L 9.6 21.36 L 9.6 19.92 M 15.84 21.36 L 9.6 21.36 L 9.6 23.04 L 15.84 21.36" fill="currentColor" stroke="currentColor" stroke-width="2.88" stroke-linecap="round"/>
  <path d="M 28.8 24.96 L 51.84 19.44" fill="none" stroke="currentColor" stroke-width="2.88" stroke-linecap="round"/>
  <path d="M 51.84 19.44 L 50.64 14.88" fill="none" stroke="currentColor" stroke-width="2.88" stroke-linecap="round"/>
  <path d="M 50.64 14.88 L 27.84 20.4" fill="none" stroke="currentColor" stroke-width="2.88" stroke-linecap="round"/>
  <path d="M 27.84 20.4 L 30 29.52" fill="none" stroke="currentColor" stroke-width="2.88" stroke-linecap="round"/>
  <path d="M 30 29.52 L 52.8 24" fill="none" stroke="currentColor" stroke-width="2.88" stroke-linecap="round"/>
  <path d="M 52.8 24 L 51.84 19.44" fill="none" stroke="currentColor" stroke-width="2.88" stroke-linecap="round"/>
  <path d="M 25.44 41.04 L 25.44 9.6" fill="none" stroke="currentColor" stroke-width="2.88" stroke-linecap="round"/>
  <path d="M 25.44 9.6 L 56.64 9.6" fill="none" stroke="currentColor" stroke-width="2.88" stroke-linecap="round"/>
  <path d="M 56.64 9.6 L 56.64 41.04" fill="none" stroke="currentColor" stroke-width="2.88" stroke-linecap="round"/>
  <path d="M 56.64 41.04 L 25.44 41.04" fill="none" stroke="currentColor" stroke-width="2.88" stroke-linecap="round"/>
  <path d="M 26.88 25.44 L 28.8 24.96" fill="none" stroke="currentColor" stroke-width="2.88" stroke-linecap="round"/>
  <path d="M 51.84 19.44 L 53.76 18.96" fill="none" stroke="currentColor" stroke-width="2.88" stroke-linecap="round"/>
  <path d="M 26.88 25.44 L 26.88 21.36" fill="none" stroke="currentColor" stroke-width="2.88" stroke-linecap="round"/>
  <path d="M 26.88 29.28 L 26.88 25.44" fill="none" stroke="currentColor" stroke-width="2.88" stroke-linecap="round"/>
  <path d="M 25.44 21.36 L 26.88 21.36" fill="none" stroke="currentColor" stroke-width="2.88" stroke-linecap="round"/>
  <path d="M 26.88 29.28 L 25.44 29.28" fill="none" stroke="currentColor" stroke-width="2.88" stroke-linecap="round"/>
  <path d="M 56.64 25.44 L 55.68 25.44" fill="none" stroke="currentColor" stroke-width="2.88" stroke-linecap="round"/>
  <path d="M 55.44 25.32 C 55.44 24.99 55.17 24.72 54.84 24.72 C 54.51 24.72 54.24 24.99 54.24 25.32 C 54.24 25.65 54.51 25.92 54.84 25.92 C 55.17 25.92 55.44 25.65 55.44 25.32" fill="none" stroke="currentColor" stroke-width="2.88" stroke-linecap="round"/>
</svg>
