<svg xmlns="http://www.w3.org/2000/svg" viewBox="0 0 81.84 66.96">
  <path d="M 9.6 35.28 L 25.2 35.28" fill="none" stroke="currentColor" stroke-width="2.88" stroke-linecap="round"/>
  <path d="M 56.64 35.28 L 72.24 35.28" fill="none" stroke="currentColor" stroke-width="2.88" stroke-linecap="round"/>
  <path d="M 33.12 31.44 L 30.72 26.64" fill="none" stroke="currentColor" stroke-width="2.88" stroke-linecap="round"/>
  <path d="M 30.72 26.64 L 26.16 29.04" fill="none" stroke="currentColor" stroke-width="2.88" stroke-linecap="round"/>
  <path d="M 28.32 22.08 L 26.16 17.28" fill="none" stroke="currentColor" stroke-width="2.88" stroke-linecap="round"/>
  <path d="M 28.32 22.08 L 23.76 24.48" fill="none" stroke="currentColor" stroke-width="2.88" stroke-linecap="round"/>
  <path d="M 26.16 29.04 L 23.76 24.48" fill="none" stroke="currentColor" stroke-width="2.88" stroke-linecap="round"/>
  <path d="M 48.72 23.52 L 41.76 9.6" fill="none" stroke="currentColor" stroke-width="2.88" stroke-linecap="round"/>
  <path d="M 41.76 9.6 L 43.2 15.84" fill="none" stroke="currentColor" stroke-width="2.88" stroke-linecap="round"/>
  <path d="M 46.08 14.4 L 41.76 9.6" fill="none" stroke="currentColor" stroke-width="2.88" stroke-linecap="round"/>
  <path d="M 46.08 14.4 L 43.2 15.84" fill="none" stroke="currentColor" stroke-width="2.88" stroke-linecap="round"/>
  <path d="M 41.76 9.6 L 46.08 14.4 L 42.96 14.4 L 41.76 9.6 M 46.08 14.4 L 42.96 14.4 L 43.2 15.84 L 46.08 14.4" fill="currentColor" stroke="currentColor" stroke-width="2.88" stroke-linecap="round"/>
  <path d="M 25.2 35.28 L 56.64 19.68" fill="none" stroke="currentColor" stroke-width="2.88" stroke-linecap="round"/>
  <path d="M 54.96 33.84 L 58.32 36.96" fill="none" stroke="currentColor" stroke-width="2.88" stroke-linecap="round"/>
  <path d="M 58.32 33.84 L 54.96 36.96" fill="none" stroke="currentColor" stroke-width="2.88" stroke-linecap="round"/>
  <path d="M 34.56 44.64 L 34.56 57.36" fill="none" stroke="currentColor" stroke-width="2.88" stroke-linecap="round"/>
  <path d="M 34.56 57.36 L 47.28 57.36" fill="none" stroke="currentColor" stroke-width="2.88" stroke-linecap="round"/>
  <path d="M 47.28 57.36 L 47.28 44.64" fill="none" stroke="currentColor" stroke-width="2.88" stroke-linecap="round"/>
  <path d="M 47.28 44.64 L 34.56 44.64" fill="none" stroke="currentColor" stroke-width="2.88" stroke-linecap="round"/>
  <path d="M 41.04 27.36 L 41.04 27.36" fill="none" stroke="currentColor" stroke-width="2.88" stroke-linecap="round"/>
  <path d="M 41.04 44.64 L 41.04 44.64" fill="none" stroke="currentColor" stroke-width="2.88" stroke-linecap="round"/>
  <path d="M 34.56 51.12 L 34.56 51.12" fill="none" stroke="currentColor" stroke-width="2.88" stroke-linecap="round"/>
  <path d="M 17.28 51.12 L 17.28 51.12" fill="none" stroke="currentColor" stroke-width="2.88" stroke-linecap="round"/>
  <path d="M 17.28 35.28 L 17.28 35.28" fill="none" stroke="currentColor" stroke-width="2.88" stroke-linecap="round"/>
  <path d="M 17.28 51.12 L 17.28 51.12" fill="none" stroke="currentColor" stroke-width="2.88" stroke-linecap="round"/>
  <path d="M 19.44 35.16 C 19.44 33.9 18.42 32.88 17.16 32.88 C 15.9 32.88 14.88 33.9 14.88 35.16 C 14.88 36.42 15.9 37.44 17.16 37.44 C 18.42 37.44 19.44 36.42 19.44 35.16" fill="none" stroke="currentColor" stroke-width="2.88" stroke-linecap="round"/>
  <path d="M 17.52 33.12 L 17.04 33.12 L 17.52 33.12" fill="currentColor" stroke="currentColor" stroke-width="2.88" stroke-linecap="round"/>
  <path d="M 17.52 33.12 L 17.04 33.12 L 18 33.12 L 17.52 33.12 M 17.04 33.12 L 18 33.12 L 16.8 33.12 L 17.04 33.12 M 18 33.12 L 16.8 33.12 L 16.56 33.12 L 18 33.12" fill="currentColor" stroke="currentColor" stroke-width="2.88" stroke-linecap="round"/>
  <path d="M 16.8 33.12 L 18 33.12 L 16.8 33.12" fill="currentColor" stroke="currentColor" stroke-width="2.88" stroke-linecap="round"/>
  <path d="M 18 33.12 L 16.56 33.12 L 18.24 33.36 L 18 33.12 M 16.56 33.12 L 18.24 33.36 L 16.56 33.36 L 16.56 33.12" fill="currentColor" stroke="currentColor" stroke-width="2.88" stroke-linecap="round"/>
  <path d="M 18.24 33.36 L 16.56 33.36 L 18.48 33.36 L 18.24 33.36 M 16.56 33.36 L 18.48 33.36 L 16.32 33.36 L 16.56 33.36" fill="currentColor" stroke="currentColor" stroke-width="2.88" stroke-linecap="round"/>
  <path d="M 18.48 33.36 L 16.32 33.36 L 18.72 33.6 L 18.48 33.36 M 16.32 33.36 L 18.72 33.6 L 16.08 33.6 L 16.32 33.36 M 18.72 33.6 L 16.08 33.6 L 15.84 33.6 L 18.72 33.6" fill="currentColor" stroke="currentColor" stroke-width="2.88" stroke-linecap="round"/>
  <path d="M 16.08 33.6 L 18.72 33.6 L 16.08 33.6" fill="currentColor" stroke="currentColor" stroke-width="2.88" stroke-linecap="round"/>
  <path d="M 18.72 33.6 L 15.84 33.6 L 18.96 33.84 L 18.72 33.6 M 15.84 33.6 L 18.96 33.84 L 15.84 33.84 L 15.84 33.6" fill="currentColor" stroke="currentColor" stroke-width="2.88" stroke-linecap="round"/>
  <path d="M 18.96 33.84 L 15.84 33.84 L 19.2 33.84 L 18.96 33.84 M 15.84 33.84 L 19.2 33.84 L 15.6 33.84 L 15.84 33.84" fill="currentColor" stroke="currentColor" stroke-width="2.88" stroke-linecap="round"/>
  <path d="M 19.2 33.84 L 15.6 33.84 L 19.2 34.08 L 19.2 33.84 M 15.6 33.84 L 19.2 34.08 L 15.6 34.08 L 15.6 33.84" fill="currentColor" stroke="currentColor" stroke-width="2.88" stroke-linecap="round"/>
  <path d="M 19.2 34.08 L 15.6 34.08 L 19.44 34.32 L 19.2 34.08 M 15.6 34.08 L 19.44 34.32 L 15.36 34.32 L 15.6 34.08" fill="currentColor" stroke="currentColor" stroke-width="2.88" stroke-linecap="round"/>
  <path d="M 19.44 34.32 L 15.36 34.32 L 19.44 34.56 L 19.44 34.32 M 15.36 34.32 L 19.44 34.56 L 15.36 34.56 L 15.36 34.32" fill="currentColor" stroke="currentColor" stroke-width="2.88" stroke-linecap="round"/>
  <path d="M 19.44 34.56 L 15.36 34.56 L 19.44 34.8 L 19.44 34.56 M 15.36 34.56 L 19.44 34.8 L 15.36 34.8 L 15.36 34.56" fill="currentColor" stroke="currentColor" stroke-width="2.88" stroke-linecap="round"/>
  <path d="M 19.44 34.8 L 15.36 34.8 L 19.68 34.8 L 19.44 34.8 M 15.36 34.8 L 19.68 34.8 L 15.12 34.8 L 15.36 34.8" fill="currentColor" stroke="currentColor" stroke-width="2.88" stroke-linecap="round"/>
  <path d="M 19.68 34.8 L 15.12 34.8 L 19.68 35.04 L 19.68 34.8 M 15.12 34.8 L 19.68 35.04 L 15.12 35.04 L 15.12 34.8" fill="currentColor" stroke="currentColor" stroke-width="2.88" stroke-linecap="round"/>
  <path d="M 19.68 35.04 L 15.12 35.04 L 19.68 35.28 L 19.68 35.04 M 15.12 35.04 L 19.68 35.28 L 15.12 35.28 L 15.12 35.04" fill="currentColor" stroke="currentColor" stroke-width="2.88" stroke-linecap="round"/>
  <path d="M 19.68 35.28 L 15.12 35.28 L 19.68 35.52 L 19.68 35.28 M 15.12 35.28 L 19.68 35.52 L 15.12 35.52 L 15.12 35.28" fill="currentColor" stroke="currentColor" stroke-width="2.88" stroke-linecap="round"/>
  <path d="M 19.68 35.52 L 15.12 35.52 L 19.68 35.76 L 19.68 35.52 M 15.12 35.52 L 19.68 35.76 L 15.12 35.76 L 15.12 35.52" fill="currentColor" stroke="currentColor" stroke-width="2.88" stroke-linecap="round"/>
  <path d="M 19.68 35.76 L 15.12 35.76 L 19.44 36 L 19.68 35.76 M 15.12 35.76 L 19.44 36 L 15.36 36 L 15.12 35.76" fill="currentColor" stroke="currentColor" stroke-width="2.88" stroke-linecap="round"/>
  <path d="M 19.44 36 L 15.36 36 L 19.44 36.24 L 19.44 36 M 15.36 36 L 19.44 36.24 L 15.36 36.24 L 15.36 36 M 19.44 36.24 L 15.36 36.24 L 19.44 36.24 M 15.36 36.24 L 19.44 36.24 L 15.36 36.24" fill="currentColor" stroke="currentColor" stroke-width="2.88" stroke-linecap="round"/>
  <path d="M 19.44 36.24 L 15.36 36.24 L 19.2 36.48 L 19.44 36.24 M 15.36 36.24 L 19.2 36.48 L 15.6 36.48 L 15.36 36.24" fill="currentColor" stroke="currentColor" stroke-width="2.88" stroke-linecap="round"/>
  <path d="M 19.2 36.48 L 15.6 36.48 L 19.2 36.72 L 19.2 36.48 M 15.6 36.48 L 19.2 36.72 L 15.6 36.72 L 15.6 36.48" fill="currentColor" stroke="currentColor" stroke-width="2.88" stroke-linecap="round"/>
  <path d="M 19.2 36.72 L 15.6 36.72 L 18.96 36.96 L 19.2 36.72 M 15.6 36.72 L 18.96 36.96 L 15.84 36.96 L 15.6 36.72" fill="currentColor" stroke="currentColor" stroke-width="2.88" stroke-linecap="round"/>
  <path d="M 18.72 36.96 L 18.72 36.96 L 15.84 36.96 L 18.72 36.96 L 15.84 36.96 L 18.96 36.96 L 18.72 36.96" fill="currentColor" stroke="currentColor" stroke-width="2.88" stroke-linecap="round"/>
  <path d="M 18.72 36.96 L 15.84 36.96 L 18.72 37.2 L 18.72 36.96 M 15.84 36.96 L 18.72 37.2 L 16.08 37.2 L 15.84 36.96" fill="currentColor" stroke="currentColor" stroke-width="2.88" stroke-linecap="round"/>
  <path d="M 18.72 37.2 L 16.08 37.2 L 18.48 37.2 L 18.72 37.2 M 16.08 37.2 L 18.48 37.2 L 16.32 37.2 L 16.08 37.2" fill="currentColor" stroke="currentColor" stroke-width="2.88" stroke-linecap="round"/>
  <path d="M 18.48 37.2 L 16.32 37.2 L 18.24 37.44 L 18.48 37.2 M 16.32 37.2 L 18.24 37.44 L 16.56 37.44 L 16.32 37.2" fill="currentColor" stroke="currentColor" stroke-width="2.88" stroke-linecap="round"/>
  <path d="M 18 37.44 L 18 37.44 L 16.56 37.44 L 18 37.44 L 16.56 37.44 L 18.24 37.44 L 18 37.44" fill="currentColor" stroke="currentColor" stroke-width="2.88" stroke-linecap="round"/>
  <path d="M 18 37.44 L 16.56 37.44 L 18 37.44 M 16.56 37.44 L 18 37.44 L 16.8 37.44 L 16.56 37.44" fill="currentColor" stroke="currentColor" stroke-width="2.88" stroke-linecap="round"/>
  <path d="M 17.52 37.44 L 17.52 37.44 L 17.04 37.44 L 17.52 37.44 L 17.04 37.44 L 16.8 37.44 L 17.52 37.44" fill="currentColor" stroke="currentColor" stroke-width="2.88" stroke-linecap="round"/>
  <path d="M 16.8 37.44 L 18 37.44 L 17.52 37.44 L 16.8 37.44" fill="currentColor" stroke="currentColor" stroke-width="2.88" stroke-linecap="round"/>
  <text x="37.44" y="54.24" font-family="Arial, Helvetica, sans-serif" font-size="8.77" fill="currentColor">R</text>
</svg>
