<svg xmlns="http://www.w3.org/2000/svg" viewBox="0 0 81.84 56.88">
  <path d="M 9.6 25.44 L 25.2 25.44" fill="none" stroke="currentColor" stroke-width="2.88" stroke-linecap="round"/>
  <path d="M 58.8 25.44 L 72.24 25.44" fill="none" stroke="currentColor" stroke-width="2.88" stroke-linecap="round"/>
  <path d="M 25.2 25.44 L 56.64 9.6" fill="none" stroke="currentColor" stroke-width="2.88" stroke-linecap="round"/>
  <path d="M 34.56 34.8 L 34.56 47.28" fill="none" stroke="currentColor" stroke-width="2.88" stroke-linecap="round"/>
  <path d="M 34.56 47.28 L 47.28 47.28" fill="none" stroke="currentColor" stroke-width="2.88" stroke-linecap="round"/>
  <path d="M 47.28 47.28 L 47.28 34.8" fill="none" stroke="currentColor" stroke-width="2.88" stroke-linecap="round"/>
  <path d="M 47.28 34.8 L 34.56 34.8" fill="none" stroke="currentColor" stroke-width="2.88" stroke-linecap="round"/>
  <path d="M 41.04 17.52 L 41.04 17.52" fill="none" stroke="currentColor" stroke-width="2.88" stroke-linecap="round"/>
  <path d="M 41.04 34.8 L 41.04 34.8" fill="none" stroke="currentColor" stroke-width="2.88" stroke-linecap="round"/>
  <path d="M 45.6 40.92 C 45.6 38.34 43.51 36.24 40.92 36.24 C 38.34 36.24 36.24 38.34 36.24 40.92 C 36.24 43.5 38.34 45.6 40.92 45.6 C 43.51 45.6 45.6 43.5 45.6 40.92" fill="none" stroke="currentColor" stroke-width="2.88" stroke-linecap="round"/>
  <path d="M 41.04 41.04 L 41.04 37.44" fill="none" stroke="currentColor" stroke-width="2.88" stroke-linecap="round"/>
  <path d="M 41.04 41.04 L 38.64 41.04" fill="none" stroke="currentColor" stroke-width="2.88" stroke-linecap="round"/>
  <path d="M 58.8 25.32 C 58.8 24.06 57.78 23.04 56.52 23.04 C 55.26 23.04 54.24 24.06 54.24 25.32 C 54.24 26.58 55.26 27.6 56.52 27.6 C 57.78 27.6 58.8 26.58 58.8 25.32" fill="none" stroke="currentColor" stroke-width="2.88" stroke-linecap="round"/>
</svg>
