<svg xmlns="http://www.w3.org/2000/svg" viewBox="0 0 81.84 58.08">
  <path d="M 9.6 40.8 L 25.2 40.8" fill="none" stroke="currentColor" stroke-width="2.88" stroke-linecap="round"/>
  <path d="M 56.64 40.8 L 72.24 40.8" fill="none" stroke="currentColor" stroke-width="2.88" stroke-linecap="round"/>
  <path d="M 25.2 40.8 L 56.64 25.2" fill="none" stroke="currentColor" stroke-width="2.88" stroke-linecap="round"/>
  <path d="M 54.96 39.36 L 58.32 42.48" fill="none" stroke="currentColor" stroke-width="2.88" stroke-linecap="round"/>
  <path d="M 58.32 39.36 L 54.96 42.48" fill="none" stroke="currentColor" stroke-width="2.88" stroke-linecap="round"/>
  <path d="M 17.16 32.88 C 15.37 32.88 13.92 36.37 13.92 40.68 C 13.92 44.99 15.37 48.48 17.16 48.48 C 18.95 48.48 20.4 44.99 20.4 40.68 C 20.4 36.37 18.95 32.88 17.16 32.88" fill="none" stroke="currentColor" stroke-width="2.88" stroke-linecap="round"/>
  <path d="M 17.28 33.12 L 17.28 33.12" fill="none" stroke="currentColor" stroke-width="2.88" stroke-linecap="round"/>
  <path d="M 17.28 15.84 L 17.28 15.84" fill="none" stroke="currentColor" stroke-width="2.88" stroke-linecap="round"/>
  <path d="M 41.04 33.12 L 41.04 33.12" fill="none" stroke="currentColor" stroke-width="2.88" stroke-linecap="round"/>
  <path d="M 41.04 18.96 L 41.04 18.96" fill="none" stroke="currentColor" stroke-width="2.88" stroke-linecap="round"/>
  <path d="M 37.92 15.84 L 37.92 15.84" fill="none" stroke="currentColor" stroke-width="2.88" stroke-linecap="round"/>
  <path d="M 17.28 15.84 L 17.28 15.84" fill="none" stroke="currentColor" stroke-width="2.88" stroke-linecap="round"/>
  <path d="M 37.92 12.72 L 37.92 18.96" fill="none" stroke="currentColor" stroke-width="2.88" stroke-linecap="round"/>
  <path d="M 37.92 18.96 L 44.16 18.96" fill="none" stroke="currentColor" stroke-width="2.88" stroke-linecap="round"/>
  <path d="M 44.16 18.96 L 44.16 12.72" fill="none" stroke="currentColor" stroke-width="2.88" stroke-linecap="round"/>
  <path d="M 44.16 12.72 L 37.92 12.72" fill="none" stroke="currentColor" stroke-width="2.88" stroke-linecap="round"/>
  <path d="M 41.04 12.72 L 41.04 18.96" fill="none" stroke="currentColor" stroke-width="2.88" stroke-linecap="round"/>
  <path d="M 37.92 15.84 L 44.16 15.84" fill="none" stroke="currentColor" stroke-width="2.88" stroke-linecap="round"/>
  <path d="M 41.04 12.72 L 41.04 9.6" fill="none" stroke="currentColor" stroke-width="2.88" stroke-linecap="round"/>
  <path d="M 39.36 9.6 L 42.48 9.6" fill="none" stroke="currentColor" stroke-width="2.88" stroke-linecap="round"/>
</svg>
