<svg xmlns="http://www.w3.org/2000/svg" viewBox="0 0 81.84 46.56">
  <path d="M 9.6 35.52 L 25.2 35.52" fill="none" stroke="currentColor" stroke-width="2.88" stroke-linecap="round"/>
  <path d="M 56.64 35.52 L 72.24 35.52" fill="none" stroke="currentColor" stroke-width="2.88" stroke-linecap="round"/>
  <path d="M 33.12 31.44 L 30.72 26.88" fill="none" stroke="currentColor" stroke-width="2.88" stroke-linecap="round"/>
  <path d="M 30.72 26.88 L 26.16 29.28" fill="none" stroke="currentColor" stroke-width="2.88" stroke-linecap="round"/>
  <path d="M 28.32 22.08 L 26.16 17.52" fill="none" stroke="currentColor" stroke-width="2.88" stroke-linecap="round"/>
  <path d="M 28.32 22.08 L 23.76 24.48" fill="none" stroke="currentColor" stroke-width="2.88" stroke-linecap="round"/>
  <path d="M 26.16 29.28 L 23.76 24.48" fill="none" stroke="currentColor" stroke-width="2.88" stroke-linecap="round"/>
  <path d="M 48.72 23.76 L 41.76 9.6" fill="none" stroke="currentColor" stroke-width="2.88" stroke-linecap="round"/>
  <path d="M 41.76 9.6 L 43.2 16.08" fill="none" stroke="currentColor" stroke-width="2.88" stroke-linecap="round"/>
  <path d="M 46.08 14.64 L 41.76 9.6" fill="none" stroke="currentColor" stroke-width="2.88" stroke-linecap="round"/>
  <path d="M 46.08 14.64 L 43.2 16.08" fill="none" stroke="currentColor" stroke-width="2.88" stroke-linecap="round"/>
  <path d="M 41.76 9.6 L 46.08 14.64 L 42.96 14.64 L 41.76 9.6 M 46.08 14.64 L 42.96 14.64 L 43.2 16.08 L 46.08 14.64" fill="currentColor" stroke="currentColor" stroke-width="2.88" stroke-linecap="round"/>
  <path d="M 25.2 35.52 L 56.64 19.68" fill="none" stroke="currentColor" stroke-width="2.88" stroke-linecap="round"/>
  <path d="M 54.96 33.84 L 58.32 36.96" fill="none" stroke="currentColor" stroke-width="2.88" stroke-linecap="round"/>
  <path d="M 58.32 33.84 L 54.96 36.96" fill="none" stroke="currentColor" stroke-width="2.88" stroke-linecap="round"/>
</svg>
