<svg xmlns="http://www.w3.org/2000/svg" viewBox="0 0 72.48 37.92">
  <path d="M 18.96 15.84 L 18.96 9.6" fill="none" stroke="currentColor" stroke-width="2.88" stroke-linecap="round"/>
  <path d="M 28.32 15.84 L 28.32 9.6" fill="none" stroke="currentColor" stroke-width="2.88" stroke-linecap="round"/>
  <path d="M 37.92 15.84 L 37.92 9.6" fill="none" stroke="currentColor" stroke-width="2.88" stroke-linecap="round"/>
  <path d="M 47.28 15.84 L 47.28 9.6" fill="none" stroke="currentColor" stroke-width="2.88" stroke-linecap="round"/>
  <path d="M 56.64 15.84 L 56.64 9.6" fill="none" stroke="currentColor" stroke-width="2.88" stroke-linecap="round"/>
  <path d="M 9.6 15.84 L 9.6 9.6" fill="none" stroke="currentColor" stroke-width="2.88" stroke-linecap="round"/>
  <path d="M 18.96 28.32 L 18.96 22.08" fill="none" stroke="currentColor" stroke-width="2.88" stroke-linecap="round"/>
  <path d="M 28.32 28.32 L 28.32 22.08" fill="none" stroke="currentColor" stroke-width="2.88" stroke-linecap="round"/>
  <path d="M 37.92 28.32 L 37.92 22.08" fill="none" stroke="currentColor" stroke-width="2.88" stroke-linecap="round"/>
  <path d="M 47.28 28.32 L 47.28 22.08" fill="none" stroke="currentColor" stroke-width="2.88" stroke-linecap="round"/>
  <path d="M 56.64 28.32 L 56.64 22.08" fill="none" stroke="currentColor" stroke-width="2.88" stroke-linecap="round"/>
  <path d="M 9.6 28.32 L 9.6 22.08" fill="none" stroke="currentColor" stroke-width="2.88" stroke-linecap="round"/>
  <path d="M 18.96 9.6 L 25.2 9.6" fill="none" stroke="currentColor" stroke-width="2.88" stroke-linecap="round"/>
  <path d="M 28.32 9.6 L 34.8 9.6" fill="none" stroke="currentColor" stroke-width="2.88" stroke-linecap="round"/>
  <path d="M 37.92 9.6 L 44.16 9.6" fill="none" stroke="currentColor" stroke-width="2.88" stroke-linecap="round"/>
  <path d="M 47.28 9.6 L 53.52 9.6" fill="none" stroke="currentColor" stroke-width="2.88" stroke-linecap="round"/>
  <path d="M 56.64 9.6 L 62.88 9.6" fill="none" stroke="currentColor" stroke-width="2.88" stroke-linecap="round"/>
  <path d="M 9.6 9.6 L 15.84 9.6" fill="none" stroke="currentColor" stroke-width="2.88" stroke-linecap="round"/>
  <path d="M 18.96 22.08 L 25.2 22.08" fill="none" stroke="currentColor" stroke-width="2.88" stroke-linecap="round"/>
  <path d="M 28.32 22.08 L 34.8 22.08" fill="none" stroke="currentColor" stroke-width="2.88" stroke-linecap="round"/>
  <path d="M 37.92 22.08 L 44.16 22.08" fill="none" stroke="currentColor" stroke-width="2.88" stroke-linecap="round"/>
  <path d="M 47.28 22.08 L 53.52 22.08" fill="none" stroke="currentColor" stroke-width="2.88" stroke-linecap="round"/>
  <path d="M 56.64 22.08 L 62.88 22.08" fill="none" stroke="currentColor" stroke-width="2.88" stroke-linecap="round"/>
  <path d="M 9.6 22.08 L 15.84 22.08" fill="none" stroke="currentColor" stroke-width="2.88" stroke-linecap="round"/>
  <path d="M 25.2 9.6 L 25.2 15.84" fill="none" stroke="currentColor" stroke-width="2.88" stroke-linecap="round"/>
  <path d="M 34.8 9.6 L 34.8 15.84" fill="none" stroke="currentColor" stroke-width="2.88" stroke-linecap="round"/>
  <path d="M 44.16 9.6 L 44.16 15.84" fill="none" stroke="currentColor" stroke-width="2.88" stroke-linecap="round"/>
  <path d="M 53.52 9.6 L 53.52 15.84" fill="none" stroke="currentColor" stroke-width="2.88" stroke-linecap="round"/>
  <path d="M 62.88 9.6 L 62.88 15.84" fill="none" stroke="currentColor" stroke-width="2.88" stroke-linecap="round"/>
  <path d="M 15.84 9.6 L 15.84 15.84" fill="none" stroke="currentColor" stroke-width="2.88" stroke-linecap="round"/>
  <path d="M 25.2 22.08 L 25.2 28.32" fill="none" stroke="currentColor" stroke-width="2.88" stroke-linecap="round"/>
  <path d="M 34.8 22.08 L 34.8 28.32" fill="none" stroke="currentColor" stroke-width="2.88" stroke-linecap="round"/>
  <path d="M 44.16 22.08 L 44.16 28.32" fill="none" stroke="currentColor" stroke-width="2.88" stroke-linecap="round"/>
  <path d="M 53.52 22.08 L 53.52 28.32" fill="none" stroke="currentColor" stroke-width="2.88" stroke-linecap="round"/>
  <path d="M 62.88 22.08 L 62.88 28.32" fill="none" stroke="currentColor" stroke-width="2.88" stroke-linecap="round"/>
  <path d="M 15.84 22.08 L 15.84 28.32" fill="none" stroke="currentColor" stroke-width="2.88" stroke-linecap="round"/>
  <path d="M 25.2 15.84 L 18.96 15.84" fill="none" stroke="currentColor" stroke-width="2.88" stroke-linecap="round"/>
  <path d="M 34.8 15.84 L 28.32 15.84" fill="none" stroke="currentColor" stroke-width="2.88" stroke-linecap="round"/>
  <path d="M 44.16 15.84 L 37.92 15.84" fill="none" stroke="currentColor" stroke-width="2.88" stroke-linecap="round"/>
  <path d="M 53.52 15.84 L 47.28 15.84" fill="none" stroke="currentColor" stroke-width="2.88" stroke-linecap="round"/>
  <path d="M 62.88 15.84 L 56.64 15.84" fill="none" stroke="currentColor" stroke-width="2.88" stroke-linecap="round"/>
  <path d="M 15.84 15.84 L 9.6 15.84" fill="none" stroke="currentColor" stroke-width="2.88" stroke-linecap="round"/>
  <path d="M 25.2 28.32 L 18.96 28.32" fill="none" stroke="currentColor" stroke-width="2.88" stroke-linecap="round"/>
  <path d="M 34.8 28.32 L 28.32 28.32" fill="none" stroke="currentColor" stroke-width="2.88" stroke-linecap="round"/>
  <path d="M 44.16 28.32 L 37.92 28.32" fill="none" stroke="currentColor" stroke-width="2.88" stroke-linecap="round"/>
  <path d="M 53.52 28.32 L 47.28 28.32" fill="none" stroke="currentColor" stroke-width="2.88" stroke-linecap="round"/>
  <path d="M 62.88 28.32 L 56.64 28.32" fill="none" stroke="currentColor" stroke-width="2.88" stroke-linecap="round"/>
  <path d="M 15.84 28.32 L 9.6 28.32" fill="none" stroke="currentColor" stroke-width="2.88" stroke-linecap="round"/>
  <text x="11.28" y="14.4" font-family="Arial, Helvetica, sans-serif" font-size="4.39" fill="currentColor">A</text>
  <text x="20.64" y="14.4" font-family="Arial, Helvetica, sans-serif" font-size="4.39" fill="currentColor">B</text>
  <text x="30" y="14.4" font-family="Arial, Helvetica, sans-serif" font-size="4.39" fill="currentColor">C</text>
  <text x="39.36" y="14.4" font-family="Arial, Helvetica, sans-serif" font-size="4.39" fill="currentColor">D</text>
  <text x="48.96" y="14.4" font-family="Arial, Helvetica, sans-serif" font-size="4.39" fill="currentColor">E</text>
  <text x="58.32" y="14.4" font-family="Arial, Helvetica, sans-serif" font-size="4.39" fill="currentColor">F</text>
  <text x="11.04" y="26.88" font-family="Arial, Helvetica, sans-serif" font-size="4.39" fill="currentColor">G</text>
  <text x="20.64" y="26.88" font-family="Arial, Helvetica, sans-serif" font-size="4.39" fill="currentColor">H</text>
  <text x="30.96" y="26.88" font-family="Arial, Helvetica, sans-serif" font-size="4.39" fill="currentColor">I</text>
  <text x="40.08" y="26.88" font-family="Arial, Helvetica, sans-serif" font-size="4.39" fill="currentColor">J</text>
  <text x="48.72" y="26.88" font-family="Arial, Helvetica, sans-serif" font-size="4.39" fill="currentColor">K</text>
  <text x="58.56" y="26.88" font-family="Arial, Helvetica, sans-serif" font-size="4.39" fill="currentColor">L</text>
</svg>
