<svg xmlns="http://www.w3.org/2000/svg" viewBox="0 0 82.08 26.4">
  <path d="M 9.6 13.92 L 25.44 13.92" fill="none" stroke="currentColor" stroke-width="2.88" stroke-linecap="round"/>
  <path d="M 56.64 13.92 L 72.48 13.92" fill="none" stroke="currentColor" stroke-width="2.88" stroke-linecap="round"/>
  <path d="M 56.64 13.92 L 25.44 13.92" fill="none" stroke="currentColor" stroke-width="2.88" stroke-linecap="round"/>
  <path d="M 39.36 10.8 L 33.36 16.8" fill="none" stroke="currentColor" stroke-width="2.88" stroke-linecap="round"/>
  <path d="M 48.72 10.8 L 42.72 16.8" fill="none" stroke="currentColor" stroke-width="2.88" stroke-linecap="round"/>
  <path d="M 53.52 10.8 L 47.52 16.8" fill="none" stroke="currentColor" stroke-width="2.88" stroke-linecap="round"/>
  <path d="M 34.56 10.8 L 28.8 16.8" fill="none" stroke="currentColor" stroke-width="2.88" stroke-linecap="round"/>
  <path d="M 43.92 10.8 L 38.16 16.8" fill="none" stroke="currentColor" stroke-width="2.88" stroke-linecap="round"/>
  <path d="M 52.32 10.8 L 54.48 10.8" fill="none" stroke="currentColor" stroke-width="2.88" stroke-linecap="round"/>
  <path d="M 49.68 10.68 C 49.68 10.08 49.2 9.6 48.6 9.6 C 48 9.6 47.52 10.08 47.52 10.68 C 47.52 11.28 48 11.76 48.6 11.76 C 49.2 11.76 49.68 11.28 49.68 10.68" fill="none" stroke="currentColor" stroke-width="2.88" stroke-linecap="round"/>
  <path d="M 48.72 9.6 L 48.72 9.84 L 48.48 9.84 L 48.72 9.6" fill="currentColor" stroke="currentColor" stroke-width="2.88" stroke-linecap="round"/>
  <path d="M 48.96 9.84 L 48.96 9.84 L 48.48 9.84 L 48.96 9.84 L 48.48 9.84 L 48.72 9.84 L 48.96 9.84" fill="currentColor" stroke="currentColor" stroke-width="2.88" stroke-linecap="round"/>
  <path d="M 48.96 9.84 L 48.48 9.84 L 48.96 9.84 M 48.48 9.84 L 48.96 9.84 L 48.24 9.84 L 48.48 9.84" fill="currentColor" stroke="currentColor" stroke-width="2.88" stroke-linecap="round"/>
  <path d="M 49.2 9.84 L 49.2 9.84 L 48.24 9.84 L 49.2 9.84 L 48.24 9.84 L 48.96 9.84 L 49.2 9.84" fill="currentColor" stroke="currentColor" stroke-width="2.88" stroke-linecap="round"/>
  <path d="M 49.2 9.84 L 48.24 9.84 L 49.2 9.84 M 48.24 9.84 L 49.2 9.84 L 48 9.84 L 48.24 9.84" fill="currentColor" stroke="currentColor" stroke-width="2.88" stroke-linecap="round"/>
  <path d="M 49.44 9.84 L 49.44 9.84 L 48 9.84 L 49.44 9.84 L 48 9.84 L 49.2 9.84 L 49.44 9.84" fill="currentColor" stroke="currentColor" stroke-width="2.88" stroke-linecap="round"/>
  <path d="M 49.44 9.84 L 48 9.84 L 49.44 10.08 L 49.44 9.84 M 48 9.84 L 49.44 10.08 L 48 10.08 L 48 9.84 M 49.44 10.08 L 48 10.08 L 47.76 10.08 L 49.44 10.08" fill="currentColor" stroke="currentColor" stroke-width="2.88" stroke-linecap="round"/>
  <path d="M 48 10.08 L 49.44 10.08 L 48 10.08" fill="currentColor" stroke="currentColor" stroke-width="2.88" stroke-linecap="round"/>
  <path d="M 49.68 10.08 L 49.68 10.08 L 47.76 10.08 L 49.68 10.08 L 47.76 10.08 L 49.44 10.08 L 49.68 10.08" fill="currentColor" stroke="currentColor" stroke-width="2.88" stroke-linecap="round"/>
  <path d="M 49.68 10.08 L 47.76 10.08 L 49.68 10.32 L 49.68 10.08 M 47.76 10.08 L 49.68 10.32 L 47.76 10.32 L 47.76 10.08 M 49.68 10.32 L 47.76 10.32 L 49.68 10.32 M 47.76 10.32 L 49.68 10.32 L 47.76 10.32" fill="currentColor" stroke="currentColor" stroke-width="2.88" stroke-linecap="round"/>
  <path d="M 49.68 10.32 L 47.76 10.32 L 49.68 10.56 L 49.68 10.32 M 47.76 10.32 L 49.68 10.56 L 47.52 10.56 L 47.76 10.32" fill="currentColor" stroke="currentColor" stroke-width="2.88" stroke-linecap="round"/>
  <path d="M 49.92 10.56 L 47.52 10.56 L 49.92 10.56 M 47.52 10.56 L 49.92 10.56 L 47.52 10.56 M 49.92 10.56 L 49.92 10.56 L 47.52 10.56 L 49.92 10.56 L 47.52 10.56 L 49.68 10.56 L 49.92 10.56" fill="currentColor" stroke="currentColor" stroke-width="2.88" stroke-linecap="round"/>
  <path d="M 49.92 10.56 L 47.52 10.56 L 49.92 10.8 L 49.92 10.56 M 47.52 10.56 L 49.92 10.8 L 47.52 10.8 L 47.52 10.56 M 49.92 10.8 L 47.52 10.8 L 49.92 10.8 M 47.52 10.8 L 49.92 10.8 L 47.52 10.8" fill="currentColor" stroke="currentColor" stroke-width="2.88" stroke-linecap="round"/>
  <path d="M 49.92 10.8 L 47.52 10.8 L 49.92 11.04 L 49.92 10.8 M 47.52 10.8 L 49.92 11.04 L 47.52 11.04 L 47.52 10.8 M 49.92 11.04 L 47.52 11.04 L 49.92 11.04 M 47.52 11.04 L 49.92 11.04 L 47.52 11.04" fill="currentColor" stroke="currentColor" stroke-width="2.88" stroke-linecap="round"/>
  <path d="M 49.92 11.04 L 47.52 11.04 L 49.92 11.28 L 49.92 11.04 M 47.52 11.04 L 49.92 11.28 L 47.52 11.28 L 47.52 11.04" fill="currentColor" stroke="currentColor" stroke-width="2.88" stroke-linecap="round"/>
  <path d="M 49.68 11.28 L 49.68 11.28 L 47.52 11.28 L 49.68 11.28 L 47.52 11.28 L 49.92 11.28 L 49.68 11.28" fill="currentColor" stroke="currentColor" stroke-width="2.88" stroke-linecap="round"/>
  <path d="M 49.68 11.28 L 47.52 11.28 L 49.68 11.52 L 49.68 11.28 M 47.52 11.28 L 49.68 11.52 L 47.76 11.52 L 47.52 11.28 M 49.68 11.52 L 47.76 11.52 L 49.68 11.52 M 47.76 11.52 L 49.68 11.52 L 47.76 11.52 M 49.68 11.52 L 49.68 11.52 L 47.76 11.52 L 49.68 11.52 L 47.76 11.52 L 49.68 11.52" fill="currentColor" stroke="currentColor" stroke-width="2.88" stroke-linecap="round"/>
  <path d="M 49.68 11.52 L 47.76 11.52 L 49.44 11.76 L 49.68 11.52 M 47.76 11.52 L 49.44 11.76 L 47.76 11.76 L 47.76 11.52 M 49.44 11.76 L 47.76 11.76 L 48 11.76 L 49.44 11.76" fill="currentColor" stroke="currentColor" stroke-width="2.88" stroke-linecap="round"/>
  <path d="M 47.76 11.76 L 49.44 11.76 L 47.76 11.76 M 49.44 11.76 L 49.44 11.76 L 48 11.76 L 49.44 11.76 L 48 11.76 L 49.44 11.76" fill="currentColor" stroke="currentColor" stroke-width="2.88" stroke-linecap="round"/>
  <path d="M 49.44 11.76 L 48 11.76 L 49.2 12 L 49.44 11.76 M 48 11.76 L 49.2 12 L 48 12 L 48 11.76 M 49.2 12 L 48 12 L 48.24 12 L 49.2 12" fill="currentColor" stroke="currentColor" stroke-width="2.88" stroke-linecap="round"/>
  <path d="M 48 12 L 49.2 12 L 48 12" fill="currentColor" stroke="currentColor" stroke-width="2.88" stroke-linecap="round"/>
  <path d="M 48.96 12 L 48.96 12 L 48.24 12 L 48.96 12 L 48.24 12 L 49.2 12 L 48.96 12" fill="currentColor" stroke="currentColor" stroke-width="2.88" stroke-linecap="round"/>
  <path d="M 48.96 12 L 48.24 12 L 48.96 12 M 48.24 12 L 48.96 12 L 48.48 12 L 48.24 12" fill="currentColor" stroke="currentColor" stroke-width="2.88" stroke-linecap="round"/>
  <path d="M 48.48 12 L 48.72 12 L 48.48 12 M 48.72 12 L 48.72 12 L 48.48 12 L 48.72 12 L 48.48 12 L 48.96 12 L 48.72 12" fill="currentColor" stroke="currentColor" stroke-width="2.88" stroke-linecap="round"/>
  <path d="M 53.52 13.92 L 47.28 13.92" fill="none" stroke="currentColor" stroke-width="2.88" stroke-linecap="round"/>
</svg>
