<svg xmlns="http://www.w3.org/2000/svg" viewBox="0 0 82.08 26.4">
  <path d="M 9.6 13.68 L 25.44 13.68" fill="none" stroke="currentColor" stroke-width="2.88" stroke-linecap="round"/>
  <path d="M 56.64 13.68 L 72.48 13.68" fill="none" stroke="currentColor" stroke-width="2.88" stroke-linecap="round"/>
  <path d="M 56.64 13.68 L 25.44 13.68" fill="none" stroke="currentColor" stroke-width="2.88" stroke-linecap="round"/>
  <path d="M 41.52 10.8 L 35.76 16.8" fill="none" stroke="currentColor" stroke-width="2.88" stroke-linecap="round"/>
  <path d="M 51.12 10.8 L 45.12 16.8" fill="none" stroke="currentColor" stroke-width="2.88" stroke-linecap="round"/>
  <path d="M 36.96 10.8 L 30.96 16.8" fill="none" stroke="currentColor" stroke-width="2.88" stroke-linecap="round"/>
  <path d="M 46.32 10.8 L 40.56 16.8" fill="none" stroke="currentColor" stroke-width="2.88" stroke-linecap="round"/>
  <path d="M 52.08 10.68 C 52.08 10.08 51.6 9.6 51 9.6 C 50.4 9.6 49.92 10.08 49.92 10.68 C 49.92 11.28 50.4 11.76 51 11.76 C 51.6 11.76 52.08 11.28 52.08 10.68" fill="none" stroke="currentColor" stroke-width="2.88" stroke-linecap="round"/>
  <path d="M 51.12 9.6 L 50.88 9.6 L 51.12 9.6" fill="currentColor" stroke="currentColor" stroke-width="2.88" stroke-linecap="round"/>
  <path d="M 51.36 9.6 L 51.36 9.6 L 50.88 9.6 L 51.36 9.6 L 50.88 9.6 L 51.12 9.6 L 51.36 9.6" fill="currentColor" stroke="currentColor" stroke-width="2.88" stroke-linecap="round"/>
  <path d="M 51.36 9.6 L 50.88 9.6 L 51.36 9.6 M 50.88 9.6 L 51.36 9.6 L 50.64 9.6 L 50.88 9.6" fill="currentColor" stroke="currentColor" stroke-width="2.88" stroke-linecap="round"/>
  <path d="M 51.36 9.6 L 50.64 9.6 L 51.6 9.84 L 51.36 9.6 M 50.64 9.6 L 51.6 9.84 L 50.64 9.84 L 50.64 9.6 M 51.6 9.84 L 50.64 9.84 L 50.4 9.84 L 51.6 9.84" fill="currentColor" stroke="currentColor" stroke-width="2.88" stroke-linecap="round"/>
  <path d="M 50.64 9.84 L 51.6 9.84 L 50.64 9.84" fill="currentColor" stroke="currentColor" stroke-width="2.88" stroke-linecap="round"/>
  <path d="M 51.84 9.84 L 50.4 9.84 L 51.84 9.84 M 50.4 9.84 L 51.84 9.84 L 50.4 9.84 M 51.84 9.84 L 51.84 9.84 L 50.4 9.84 L 51.84 9.84 L 50.4 9.84 L 51.6 9.84 L 51.84 9.84" fill="currentColor" stroke="currentColor" stroke-width="2.88" stroke-linecap="round"/>
  <path d="M 51.84 9.84 L 50.4 9.84 L 51.84 10.08 L 51.84 9.84 M 50.4 9.84 L 51.84 10.08 L 50.16 10.08 L 50.4 9.84" fill="currentColor" stroke="currentColor" stroke-width="2.88" stroke-linecap="round"/>
  <path d="M 52.08 10.08 L 50.16 10.08 L 52.08 10.08 M 50.16 10.08 L 52.08 10.08 L 50.16 10.08 M 52.08 10.08 L 52.08 10.08 L 50.16 10.08 L 52.08 10.08 L 50.16 10.08 L 51.84 10.08 L 52.08 10.08" fill="currentColor" stroke="currentColor" stroke-width="2.88" stroke-linecap="round"/>
  <path d="M 52.08 10.08 L 50.16 10.08 L 52.08 10.32 L 52.08 10.08 M 50.16 10.08 L 52.08 10.32 L 49.92 10.32 L 50.16 10.08 M 52.08 10.32 L 49.92 10.32 L 52.08 10.32 M 49.92 10.32 L 52.08 10.32 L 49.92 10.32" fill="currentColor" stroke="currentColor" stroke-width="2.88" stroke-linecap="round"/>
  <path d="M 52.08 10.32 L 49.92 10.32 L 52.08 10.56 L 52.08 10.32 M 49.92 10.32 L 52.08 10.56 L 49.92 10.56 L 49.92 10.32" fill="currentColor" stroke="currentColor" stroke-width="2.88" stroke-linecap="round"/>
  <path d="M 52.32 10.56 L 52.32 10.56 L 49.92 10.56 L 52.32 10.56 L 49.92 10.56 L 52.08 10.56 L 52.32 10.56" fill="currentColor" stroke="currentColor" stroke-width="2.88" stroke-linecap="round"/>
  <path d="M 52.32 10.56 L 49.92 10.56 L 52.32 10.8 L 52.32 10.56 M 49.92 10.56 L 52.32 10.8 L 49.92 10.8 L 49.92 10.56 M 52.32 10.8 L 49.92 10.8 L 52.32 10.8 M 49.92 10.8 L 52.32 10.8 L 49.92 10.8" fill="currentColor" stroke="currentColor" stroke-width="2.88" stroke-linecap="round"/>
  <path d="M 52.32 10.8 L 49.92 10.8 L 52.32 11.04 L 52.32 10.8 M 49.92 10.8 L 52.32 11.04 L 49.92 11.04 L 49.92 10.8 M 52.32 11.04 L 49.92 11.04 L 52.32 11.04 M 49.92 11.04 L 52.32 11.04 L 49.92 11.04" fill="currentColor" stroke="currentColor" stroke-width="2.88" stroke-linecap="round"/>
  <path d="M 52.08 11.04 L 52.08 11.04 L 49.92 11.04 L 52.08 11.04 L 49.92 11.04 L 52.32 11.04 L 52.08 11.04" fill="currentColor" stroke="currentColor" stroke-width="2.88" stroke-linecap="round"/>
  <path d="M 52.08 11.04 L 49.92 11.04 L 52.08 11.28 L 52.08 11.04 M 49.92 11.04 L 52.08 11.28 L 49.92 11.28 L 49.92 11.04 M 52.08 11.28 L 49.92 11.28 L 52.08 11.28 M 49.92 11.28 L 52.08 11.28 L 49.92 11.28" fill="currentColor" stroke="currentColor" stroke-width="2.88" stroke-linecap="round"/>
  <path d="M 52.08 11.28 L 49.92 11.28 L 52.08 11.52 L 52.08 11.28 M 49.92 11.28 L 52.08 11.52 L 50.16 11.52 L 49.92 11.28 M 52.08 11.52 L 50.16 11.52 L 52.08 11.52 M 50.16 11.52 L 52.08 11.52 L 50.16 11.52" fill="currentColor" stroke="currentColor" stroke-width="2.88" stroke-linecap="round"/>
  <path d="M 51.84 11.52 L 51.84 11.52 L 50.16 11.52 L 51.84 11.52 L 50.16 11.52 L 52.08 11.52 L 51.84 11.52" fill="currentColor" stroke="currentColor" stroke-width="2.88" stroke-linecap="round"/>
  <path d="M 51.84 11.52 L 50.16 11.52 L 51.84 11.76 L 51.84 11.52 M 50.16 11.52 L 51.84 11.76 L 50.4 11.76 L 50.16 11.52 M 51.84 11.76 L 50.4 11.76 L 51.84 11.76 M 50.4 11.76 L 51.84 11.76 L 50.4 11.76" fill="currentColor" stroke="currentColor" stroke-width="2.88" stroke-linecap="round"/>
  <path d="M 51.6 11.76 L 51.6 11.76 L 50.4 11.76 L 51.6 11.76 L 50.4 11.76 L 51.84 11.76 L 51.6 11.76" fill="currentColor" stroke="currentColor" stroke-width="2.88" stroke-linecap="round"/>
  <path d="M 51.6 11.76 L 50.4 11.76 L 51.6 12 L 51.6 11.76 M 50.4 11.76 L 51.6 12 L 50.64 12 L 50.4 11.76" fill="currentColor" stroke="currentColor" stroke-width="2.88" stroke-linecap="round"/>
  <path d="M 51.36 12 L 51.36 12 L 50.64 12 L 51.36 12 L 50.64 12 L 51.6 12 L 51.36 12" fill="currentColor" stroke="currentColor" stroke-width="2.88" stroke-linecap="round"/>
  <path d="M 51.36 12 L 50.64 12 L 51.36 12 M 50.64 12 L 51.36 12 L 50.88 12 L 50.64 12" fill="currentColor" stroke="currentColor" stroke-width="2.88" stroke-linecap="round"/>
  <path d="M 50.88 12 L 51.12 12 L 50.88 12 M 51.12 12 L 51.12 12 L 50.88 12 L 51.12 12 L 50.88 12 L 51.36 12 L 51.12 12" fill="currentColor" stroke="currentColor" stroke-width="2.88" stroke-linecap="round"/>
  <path d="M 53.52 13.68 L 47.28 13.68" fill="none" stroke="currentColor" stroke-width="2.88" stroke-linecap="round"/>
</svg>
