<svg xmlns="http://www.w3.org/2000/svg" viewBox="0 0 82.08 26.16">
  <path d="M 9.6 13.68 L 25.44 13.68" fill="none" stroke="currentColor" stroke-width="2.88" stroke-linecap="round"/>
  <path d="M 56.64 13.68 L 72.48 13.68" fill="none" stroke="currentColor" stroke-width="2.88" stroke-linecap="round"/>
  <path d="M 56.64 13.68 L 25.44 13.68" fill="none" stroke="currentColor" stroke-width="2.88" stroke-linecap="round"/>
  <path d="M 39.36 10.8 L 33.36 16.56" fill="none" stroke="currentColor" stroke-width="2.88" stroke-linecap="round"/>
  <path d="M 43.92 10.8 L 38.16 16.56" fill="none" stroke="currentColor" stroke-width="2.88" stroke-linecap="round"/>
  <path d="M 48.72 10.8 L 42.72 16.56" fill="none" stroke="currentColor" stroke-width="2.88" stroke-linecap="round"/>
  <path d="M 47.52 10.8 L 49.92 10.8" fill="none" stroke="currentColor" stroke-width="2.88" stroke-linecap="round"/>
  <path d="M 44.88 10.68 C 44.88 10.08 44.4 9.6 43.8 9.6 C 43.2 9.6 42.72 10.08 42.72 10.68 C 42.72 11.28 43.2 11.76 43.8 11.76 C 44.4 11.76 44.88 11.28 44.88 10.68" fill="none" stroke="currentColor" stroke-width="2.88" stroke-linecap="round"/>
  <path d="M 43.92 9.6 L 43.92 9.6 L 44.16 9.6 L 43.92 9.6 L 44.16 9.6 L 43.68 9.6 L 43.92 9.6" fill="currentColor" stroke="currentColor" stroke-width="2.88" stroke-linecap="round"/>
  <path d="M 43.92 9.6 L 44.16 9.6 L 43.92 9.6" fill="currentColor" stroke="currentColor" stroke-width="2.88" stroke-linecap="round"/>
  <path d="M 44.4 9.6 L 44.4 9.6 L 43.68 9.6 L 44.4 9.6 L 43.68 9.6 L 44.16 9.6 L 44.4 9.6" fill="currentColor" stroke="currentColor" stroke-width="2.88" stroke-linecap="round"/>
  <path d="M 44.4 9.6 L 43.68 9.6 L 44.4 9.6 M 43.68 9.6 L 44.4 9.6 L 43.44 9.6 L 43.68 9.6" fill="currentColor" stroke="currentColor" stroke-width="2.88" stroke-linecap="round"/>
  <path d="M 44.64 9.6 L 44.64 9.6 L 43.44 9.6 L 44.64 9.6 L 43.44 9.6 L 44.4 9.6 L 44.64 9.6" fill="currentColor" stroke="currentColor" stroke-width="2.88" stroke-linecap="round"/>
  <path d="M 44.64 9.6 L 43.44 9.6 L 44.64 9.84 L 44.64 9.6 M 43.44 9.6 L 44.64 9.84 L 43.44 9.84 L 43.44 9.6 M 44.64 9.84 L 43.44 9.84 L 43.2 9.84 L 44.64 9.84" fill="currentColor" stroke="currentColor" stroke-width="2.88" stroke-linecap="round"/>
  <path d="M 43.44 9.84 L 44.64 9.84 L 43.44 9.84" fill="currentColor" stroke="currentColor" stroke-width="2.88" stroke-linecap="round"/>
  <path d="M 44.88 9.84 L 44.88 9.84 L 43.2 9.84 L 44.88 9.84 L 43.2 9.84 L 44.64 9.84 L 44.88 9.84" fill="currentColor" stroke="currentColor" stroke-width="2.88" stroke-linecap="round"/>
  <path d="M 44.88 9.84 L 43.2 9.84 L 44.88 10.08 L 44.88 9.84 M 43.2 9.84 L 44.88 10.08 L 42.96 10.08 L 43.2 9.84 M 44.88 10.08 L 42.96 10.08 L 44.88 10.08 M 42.96 10.08 L 44.88 10.08 L 42.96 10.08" fill="currentColor" stroke="currentColor" stroke-width="2.88" stroke-linecap="round"/>
  <path d="M 45.12 10.08 L 45.12 10.08 L 42.96 10.08 L 45.12 10.08 L 42.96 10.08 L 44.88 10.08 L 45.12 10.08" fill="currentColor" stroke="currentColor" stroke-width="2.88" stroke-linecap="round"/>
  <path d="M 45.12 10.08 L 42.96 10.08 L 45.12 10.32 L 45.12 10.08 M 42.96 10.08 L 45.12 10.32 L 42.96 10.32 L 42.96 10.08 M 45.12 10.32 L 42.96 10.32 L 45.12 10.32 M 42.96 10.32 L 45.12 10.32 L 42.96 10.32" fill="currentColor" stroke="currentColor" stroke-width="2.88" stroke-linecap="round"/>
  <path d="M 45.12 10.32 L 42.96 10.32 L 45.12 10.56 L 45.12 10.32 M 42.96 10.32 L 45.12 10.56 L 42.96 10.56 L 42.96 10.32 M 45.12 10.56 L 42.96 10.56 L 42.72 10.56 L 45.12 10.56" fill="currentColor" stroke="currentColor" stroke-width="2.88" stroke-linecap="round"/>
  <path d="M 42.96 10.56 L 45.12 10.56 L 42.96 10.56" fill="currentColor" stroke="currentColor" stroke-width="2.88" stroke-linecap="round"/>
  <path d="M 45.12 10.56 L 42.72 10.56 L 45.12 10.8 L 45.12 10.56 M 42.72 10.56 L 45.12 10.8 L 42.72 10.8 L 42.72 10.56 M 45.12 10.8 L 42.72 10.8 L 45.12 10.8 M 42.72 10.8 L 45.12 10.8 L 42.72 10.8" fill="currentColor" stroke="currentColor" stroke-width="2.88" stroke-linecap="round"/>
  <path d="M 45.12 10.8 L 42.72 10.8 L 45.12 11.04 L 45.12 10.8 M 42.72 10.8 L 45.12 11.04 L 42.96 11.04 L 42.72 10.8 M 45.12 11.04 L 42.96 11.04 L 45.12 11.04 M 42.96 11.04 L 45.12 11.04 L 42.96 11.04 M 45.12 11.04 L 45.12 11.04 L 42.96 11.04 L 45.12 11.04 L 42.96 11.04 L 45.12 11.04" fill="currentColor" stroke="currentColor" stroke-width="2.88" stroke-linecap="round"/>
  <path d="M 45.12 11.04 L 42.96 11.04 L 45.12 11.28 L 45.12 11.04 M 42.96 11.04 L 45.12 11.28 L 42.96 11.28 L 42.96 11.04" fill="currentColor" stroke="currentColor" stroke-width="2.88" stroke-linecap="round"/>
  <path d="M 44.88 11.28 L 44.88 11.28 L 42.96 11.28 L 44.88 11.28 L 42.96 11.28 L 45.12 11.28 L 44.88 11.28" fill="currentColor" stroke="currentColor" stroke-width="2.88" stroke-linecap="round"/>
  <path d="M 44.88 11.28 L 42.96 11.28 L 44.88 11.52 L 44.88 11.28 M 42.96 11.28 L 44.88 11.52 L 42.96 11.52 L 42.96 11.28 M 44.88 11.52 L 42.96 11.52 L 43.2 11.52 L 44.88 11.52" fill="currentColor" stroke="currentColor" stroke-width="2.88" stroke-linecap="round"/>
  <path d="M 42.96 11.52 L 44.88 11.52 L 42.96 11.52" fill="currentColor" stroke="currentColor" stroke-width="2.88" stroke-linecap="round"/>
  <path d="M 44.64 11.52 L 44.64 11.52 L 43.2 11.52 L 44.64 11.52 L 43.2 11.52 L 44.88 11.52 L 44.64 11.52" fill="currentColor" stroke="currentColor" stroke-width="2.88" stroke-linecap="round"/>
  <path d="M 44.64 11.52 L 43.2 11.52 L 44.64 11.76 L 44.64 11.52 M 43.2 11.52 L 44.64 11.76 L 43.44 11.76 L 43.2 11.52 M 44.64 11.76 L 43.44 11.76 L 44.64 11.76 M 43.44 11.76 L 44.64 11.76 L 43.44 11.76" fill="currentColor" stroke="currentColor" stroke-width="2.88" stroke-linecap="round"/>
  <path d="M 44.4 11.76 L 44.4 11.76 L 43.44 11.76 L 44.4 11.76 L 43.44 11.76 L 44.64 11.76 L 44.4 11.76" fill="currentColor" stroke="currentColor" stroke-width="2.88" stroke-linecap="round"/>
  <path d="M 44.4 11.76 L 43.44 11.76 L 44.4 11.76 M 43.44 11.76 L 44.4 11.76 L 43.68 11.76 L 43.44 11.76" fill="currentColor" stroke="currentColor" stroke-width="2.88" stroke-linecap="round"/>
  <path d="M 44.16 11.76 L 44.16 11.76 L 43.68 11.76 L 44.16 11.76 L 43.68 11.76 L 44.4 11.76 L 44.16 11.76" fill="currentColor" stroke="currentColor" stroke-width="2.88" stroke-linecap="round"/>
  <path d="M 44.16 12 L 44.16 12 L 43.92 12 L 44.16 12 L 43.92 12 L 43.68 11.76 L 44.16 12" fill="currentColor" stroke="currentColor" stroke-width="2.88" stroke-linecap="round"/>
  <path d="M 43.68 11.76 L 44.16 11.76 L 44.16 12 L 43.68 11.76" fill="currentColor" stroke="currentColor" stroke-width="2.88" stroke-linecap="round"/>
</svg>
