<svg xmlns="http://www.w3.org/2000/svg" viewBox="0 0 82.08 53.76">
  <path d="M 9.6 41.04 L 25.44 41.04" fill="none" stroke="currentColor" stroke-width="2.88" stroke-linecap="round"/>
  <path d="M 56.64 41.04 L 72.48 41.04" fill="none" stroke="currentColor" stroke-width="2.88" stroke-linecap="round"/>
  <path d="M 45.84 40.92 C 45.84 40.32 45.36 39.84 44.76 39.84 C 44.16 39.84 43.68 40.32 43.68 40.92 C 43.68 41.52 44.16 42 44.76 42 C 45.36 42 45.84 41.52 45.84 40.92" fill="none" stroke="currentColor" stroke-width="2.88" stroke-linecap="round"/>
  <path d="M 45.12 39.84 L 44.88 39.84 L 45.12 39.84" fill="currentColor" stroke="currentColor" stroke-width="2.88" stroke-linecap="round"/>
  <path d="M 45.12 39.84 L 44.88 39.84 L 45.36 39.84 L 45.12 39.84 M 44.88 39.84 L 45.36 39.84 L 44.64 39.84 L 44.88 39.84 M 45.36 39.84 L 44.64 39.84 L 45.36 39.84 M 44.64 39.84 L 45.36 39.84 L 44.64 39.84" fill="currentColor" stroke="currentColor" stroke-width="2.88" stroke-linecap="round"/>
  <path d="M 45.36 39.84 L 44.64 39.84 L 45.36 40.08 L 45.36 39.84 M 44.64 39.84 L 45.36 40.08 L 44.64 40.08 L 44.64 39.84" fill="currentColor" stroke="currentColor" stroke-width="2.88" stroke-linecap="round"/>
  <path d="M 45.36 40.08 L 44.64 40.08 L 45.6 40.08 L 45.36 40.08 M 44.64 40.08 L 45.6 40.08 L 44.4 40.08 L 44.64 40.08 M 45.6 40.08 L 44.4 40.08 L 45.6 40.08 M 44.4 40.08 L 45.6 40.08 L 44.4 40.08" fill="currentColor" stroke="currentColor" stroke-width="2.88" stroke-linecap="round"/>
  <path d="M 45.6 40.08 L 44.4 40.08 L 45.6 40.08 M 44.4 40.08 L 45.6 40.08 L 44.16 40.08 L 44.4 40.08" fill="currentColor" stroke="currentColor" stroke-width="2.88" stroke-linecap="round"/>
  <path d="M 45.6 40.08 L 44.16 40.08 L 45.84 40.32 L 45.6 40.08 M 44.16 40.08 L 45.84 40.32 L 44.16 40.32 L 44.16 40.08 M 45.84 40.32 L 44.16 40.32 L 45.84 40.32 M 44.16 40.32 L 45.84 40.32 L 44.16 40.32 M 45.84 40.32 L 45.84 40.32 L 44.16 40.32 L 45.84 40.32 L 44.16 40.32 L 45.84 40.32" fill="currentColor" stroke="currentColor" stroke-width="2.88" stroke-linecap="round"/>
  <path d="M 45.84 40.32 L 44.16 40.32 L 46.08 40.56 L 45.84 40.32 M 44.16 40.32 L 46.08 40.56 L 43.92 40.56 L 44.16 40.32 M 46.08 40.56 L 43.92 40.56 L 46.08 40.56 M 43.92 40.56 L 46.08 40.56 L 43.92 40.56 M 46.08 40.56 L 46.08 40.56 L 43.92 40.56 L 46.08 40.56 L 43.92 40.56 L 46.08 40.56" fill="currentColor" stroke="currentColor" stroke-width="2.88" stroke-linecap="round"/>
  <path d="M 46.08 40.56 L 43.92 40.56 L 46.08 40.8 L 46.08 40.56 M 43.92 40.56 L 46.08 40.8 L 43.92 40.8 L 43.92 40.56 M 46.08 40.8 L 43.92 40.8 L 46.08 40.8 M 43.92 40.8 L 46.08 40.8 L 43.92 40.8" fill="currentColor" stroke="currentColor" stroke-width="2.88" stroke-linecap="round"/>
  <path d="M 46.08 40.8 L 43.92 40.8 L 46.08 41.04 L 46.08 40.8 M 43.92 40.8 L 46.08 41.04 L 43.92 41.04 L 43.92 40.8 M 46.08 41.04 L 43.92 41.04 L 46.08 41.04 M 43.92 41.04 L 46.08 41.04 L 43.92 41.04" fill="currentColor" stroke="currentColor" stroke-width="2.88" stroke-linecap="round"/>
  <path d="M 46.08 41.04 L 43.92 41.04 L 46.08 41.28 L 46.08 41.04 M 43.92 41.04 L 46.08 41.28 L 43.92 41.28 L 43.92 41.04 M 46.08 41.28 L 43.92 41.28 L 46.08 41.28 M 43.92 41.28 L 46.08 41.28 L 43.92 41.28 M 46.08 41.28 L 46.08 41.28 L 43.92 41.28 L 46.08 41.28 L 43.92 41.28 L 46.08 41.28" fill="currentColor" stroke="currentColor" stroke-width="2.88" stroke-linecap="round"/>
  <path d="M 46.08 41.28 L 43.92 41.28 L 46.08 41.52 L 46.08 41.28 M 43.92 41.28 L 46.08 41.52 L 43.92 41.52 L 43.92 41.28" fill="currentColor" stroke="currentColor" stroke-width="2.88" stroke-linecap="round"/>
  <path d="M 46.08 41.52 L 43.92 41.52 L 45.84 41.52 L 46.08 41.52 M 43.92 41.52 L 45.84 41.52 L 44.16 41.52 L 43.92 41.52" fill="currentColor" stroke="currentColor" stroke-width="2.88" stroke-linecap="round"/>
  <path d="M 45.84 41.52 L 44.16 41.52 L 45.84 41.76 L 45.84 41.52 M 44.16 41.52 L 45.84 41.76 L 44.16 41.76 L 44.16 41.52 M 45.84 41.76 L 44.16 41.76 L 45.84 41.76 M 44.16 41.76 L 45.84 41.76 L 44.16 41.76" fill="currentColor" stroke="currentColor" stroke-width="2.88" stroke-linecap="round"/>
  <path d="M 45.6 41.76 L 45.6 41.76 L 44.16 41.76 L 45.6 41.76 L 44.16 41.76 L 45.84 41.76 L 45.6 41.76" fill="currentColor" stroke="currentColor" stroke-width="2.88" stroke-linecap="round"/>
  <path d="M 45.6 41.76 L 44.16 41.76 L 45.6 42 L 45.6 41.76 M 44.16 41.76 L 45.6 42 L 44.4 42 L 44.16 41.76 M 45.6 42 L 44.4 42 L 45.6 42 M 44.4 42 L 45.6 42 L 44.4 42" fill="currentColor" stroke="currentColor" stroke-width="2.88" stroke-linecap="round"/>
  <path d="M 45.6 42 L 44.4 42 L 45.36 42 L 45.6 42 M 44.4 42 L 45.36 42 L 44.64 42 L 44.4 42 M 45.36 42 L 44.64 42 L 45.36 42 M 44.64 42 L 45.36 42 L 44.64 42 M 45.36 42 L 45.36 42 L 44.64 42 L 45.36 42 L 44.64 42 L 45.36 42" fill="currentColor" stroke="currentColor" stroke-width="2.88" stroke-linecap="round"/>
  <path d="M 45.12 42 L 45.12 42 L 44.88 42 L 45.12 42 L 44.88 42 L 44.64 42 L 45.12 42" fill="currentColor" stroke="currentColor" stroke-width="2.88" stroke-linecap="round"/>
  <path d="M 44.64 42 L 45.36 42 L 45.12 42 L 44.64 42" fill="currentColor" stroke="currentColor" stroke-width="2.88" stroke-linecap="round"/>
  <path d="M 33.12 9.6 L 48.96 9.6" fill="none" stroke="currentColor" stroke-width="2.88" stroke-linecap="round"/>
  <path d="M 33.12 25.2 L 41.04 25.2" fill="none" stroke="currentColor" stroke-width="2.88" stroke-linecap="round"/>
  <path d="M 41.04 25.2 L 48.96 25.2" fill="none" stroke="currentColor" stroke-width="2.88" stroke-linecap="round"/>
  <path d="M 33.12 25.2 L 33.12 12.72" fill="none" stroke="currentColor" stroke-width="2.88" stroke-linecap="round"/>
  <path d="M 48.96 25.2 L 48.96 12.72" fill="none" stroke="currentColor" stroke-width="2.88" stroke-linecap="round"/>
  <path d="M 33.12 12.72 L 48.96 12.72" fill="none" stroke="currentColor" stroke-width="2.88" stroke-linecap="round"/>
  <path d="M 33.12 12.72 L 33.12 9.6" fill="none" stroke="currentColor" stroke-width="2.88" stroke-linecap="round"/>
  <path d="M 48.96 9.6 L 48.96 12.72" fill="none" stroke="currentColor" stroke-width="2.88" stroke-linecap="round"/>
  <path d="M 33.12 25.2 L 33.12 9.6" fill="none" stroke="currentColor" stroke-width="2.88" stroke-linecap="round"/>
  <path d="M 37.2 25.2 L 37.2 37.92" fill="none" stroke="currentColor" stroke-width="2.88" stroke-linecap="round"/>
  <path d="M 44.88 25.2 L 44.88 41.04" fill="none" stroke="currentColor" stroke-width="2.88" stroke-linecap="round"/>
  <path d="M 25.44 41.04 L 37.2 41.04" fill="none" stroke="currentColor" stroke-width="2.88" stroke-linecap="round"/>
  <path d="M 56.64 41.04 L 44.88 41.04" fill="none" stroke="currentColor" stroke-width="2.88" stroke-linecap="round"/>
  <path d="M 37.2 41.04 L 44.88 41.04" fill="none" stroke="currentColor" stroke-width="2.88" stroke-linecap="round"/>
  <path d="M 40.32 40.92 C 40.32 39.13 38.87 37.68 37.08 37.68 C 35.29 37.68 33.84 39.13 33.84 40.92 C 33.84 42.71 35.29 44.16 37.08 44.16 C 38.87 44.16 40.32 42.71 40.32 40.92" fill="none" stroke="currentColor" stroke-width="2.88" stroke-linecap="round"/>
  <text x="34.8" y="22.08" font-family="Arial, Helvetica, sans-serif" font-size="8.77" fill="currentColor">Wh</text>
</svg>
