<svg xmlns="http://www.w3.org/2000/svg" viewBox="0 0 82.08 40.08">
  <path d="M 9.6 20.16 L 25.44 20.16" fill="none" stroke="currentColor" stroke-width="2.88" stroke-linecap="round"/>
  <path d="M 56.64 20.16 L 72.48 20.16" fill="none" stroke="currentColor" stroke-width="2.88" stroke-linecap="round"/>
  <path d="M 46.08 20.04 C 46.08 14.27 41.41 9.6 35.64 9.6 C 29.87 9.6 25.2 14.27 25.2 20.04 C 25.2 25.81 29.87 30.48 35.64 30.48 C 41.41 30.48 46.08 25.81 46.08 20.04" fill="none" stroke="currentColor" stroke-width="2.88" stroke-linecap="round"/>
  <path d="M 56.64 20.04 C 56.64 14.27 51.97 9.6 46.2 9.6 C 40.43 9.6 35.76 14.27 35.76 20.04 C 35.76 25.81 40.43 30.48 46.2 30.48 C 51.97 30.48 56.64 25.81 56.64 20.04" fill="none" stroke="currentColor" stroke-width="2.88" stroke-linecap="round"/>
</svg>
