<svg xmlns="http://www.w3.org/2000/svg" viewBox="0 0 81.84 52.8">
  <path d="M 9.6 40.08 L 25.2 40.08" fill="none" stroke="currentColor" stroke-width="2.88" stroke-linecap="round"/>
  <path d="M 56.64 40.08 L 72.24 40.08" fill="none" stroke="currentColor" stroke-width="2.88" stroke-linecap="round"/>
  <path d="M 45.84 39.96 C 45.84 39.36 45.36 38.88 44.76 38.88 C 44.16 38.88 43.68 39.36 43.68 39.96 C 43.68 40.56 44.16 41.04 44.76 41.04 C 45.36 41.04 45.84 40.56 45.84 39.96" fill="none" stroke="currentColor" stroke-width="2.88" stroke-linecap="round"/>
  <path d="M 44.88 39.12 L 44.64 39.12 L 44.88 39.12" fill="currentColor" stroke="currentColor" stroke-width="2.88" stroke-linecap="round"/>
  <path d="M 45.12 39.12 L 45.12 39.12 L 44.64 39.12 L 45.12 39.12 L 44.64 39.12 L 44.88 39.12 L 45.12 39.12" fill="currentColor" stroke="currentColor" stroke-width="2.88" stroke-linecap="round"/>
  <path d="M 45.12 39.12 L 44.64 39.12 L 45.12 39.12 M 44.64 39.12 L 45.12 39.12 L 44.4 39.12 L 44.64 39.12" fill="currentColor" stroke="currentColor" stroke-width="2.88" stroke-linecap="round"/>
  <path d="M 45.36 39.12 L 44.4 39.12 L 45.36 39.12 M 44.4 39.12 L 45.36 39.12 L 44.4 39.12 M 45.36 39.12 L 45.36 39.12 L 44.4 39.12 L 45.36 39.12 L 44.4 39.12 L 45.12 39.12 L 45.36 39.12" fill="currentColor" stroke="currentColor" stroke-width="2.88" stroke-linecap="round"/>
  <path d="M 45.36 39.12 L 44.4 39.12 L 45.6 39.12 L 45.36 39.12 M 44.4 39.12 L 45.6 39.12 L 44.16 39.12 L 44.4 39.12" fill="currentColor" stroke="currentColor" stroke-width="2.88" stroke-linecap="round"/>
  <path d="M 45.6 39.12 L 44.16 39.12 L 45.6 39.36 L 45.6 39.12 M 44.16 39.12 L 45.6 39.36 L 44.16 39.36 L 44.16 39.12 M 45.6 39.36 L 44.16 39.36 L 45.6 39.36 M 44.16 39.36 L 45.6 39.36 L 44.16 39.36" fill="currentColor" stroke="currentColor" stroke-width="2.88" stroke-linecap="round"/>
  <path d="M 45.6 39.36 L 44.16 39.36 L 45.84 39.36 L 45.6 39.36 M 44.16 39.36 L 45.84 39.36 L 43.92 39.36 L 44.16 39.36" fill="currentColor" stroke="currentColor" stroke-width="2.88" stroke-linecap="round"/>
  <path d="M 45.84 39.36 L 43.92 39.36 L 45.84 39.6 L 45.84 39.36 M 43.92 39.36 L 45.84 39.6 L 43.92 39.6 L 43.92 39.36 M 45.84 39.6 L 43.92 39.6 L 45.84 39.6 M 43.92 39.6 L 45.84 39.6 L 43.92 39.6 M 45.84 39.6 L 45.84 39.6 L 43.92 39.6 L 45.84 39.6 L 43.92 39.6 L 45.84 39.6" fill="currentColor" stroke="currentColor" stroke-width="2.88" stroke-linecap="round"/>
  <path d="M 45.84 39.6 L 43.92 39.6 L 45.84 39.84 L 45.84 39.6 M 43.92 39.6 L 45.84 39.84 L 43.68 39.84 L 43.92 39.6 M 45.84 39.84 L 43.68 39.84 L 45.84 39.84 M 43.68 39.84 L 45.84 39.84 L 43.68 39.84" fill="currentColor" stroke="currentColor" stroke-width="2.88" stroke-linecap="round"/>
  <path d="M 45.84 39.84 L 43.68 39.84 L 45.84 40.08 L 45.84 39.84 M 43.68 39.84 L 45.84 40.08 L 43.68 40.08 L 43.68 39.84" fill="currentColor" stroke="currentColor" stroke-width="2.88" stroke-linecap="round"/>
  <path d="M 46.08 40.08 L 46.08 40.08 L 43.68 40.08 L 46.08 40.08 L 43.68 40.08 L 45.84 40.08 L 46.08 40.08" fill="currentColor" stroke="currentColor" stroke-width="2.88" stroke-linecap="round"/>
  <path d="M 46.08 40.08 L 43.68 40.08 L 45.84 40.32 L 46.08 40.08 M 43.68 40.08 L 45.84 40.32 L 43.68 40.32 L 43.68 40.08 M 45.84 40.32 L 43.68 40.32 L 45.84 40.32 M 43.68 40.32 L 45.84 40.32 L 43.68 40.32 M 45.84 40.32 L 45.84 40.32 L 43.68 40.32 L 45.84 40.32 L 43.68 40.32 L 45.84 40.32" fill="currentColor" stroke="currentColor" stroke-width="2.88" stroke-linecap="round"/>
  <path d="M 45.84 40.32 L 43.68 40.32 L 45.84 40.56 L 45.84 40.32 M 43.68 40.32 L 45.84 40.56 L 43.92 40.56 L 43.68 40.32 M 45.84 40.56 L 43.92 40.56 L 45.84 40.56 M 43.92 40.56 L 45.84 40.56 L 43.92 40.56" fill="currentColor" stroke="currentColor" stroke-width="2.88" stroke-linecap="round"/>
  <path d="M 45.84 40.56 L 43.92 40.56 L 45.84 40.8 L 45.84 40.56 M 43.92 40.56 L 45.84 40.8 L 43.92 40.8 L 43.92 40.56 M 45.84 40.8 L 43.92 40.8 L 45.84 40.8 M 43.92 40.8 L 45.84 40.8 L 43.92 40.8" fill="currentColor" stroke="currentColor" stroke-width="2.88" stroke-linecap="round"/>
  <path d="M 45.84 40.8 L 43.92 40.8 L 45.6 40.8 L 45.84 40.8 M 43.92 40.8 L 45.6 40.8 L 44.16 40.8 L 43.92 40.8" fill="currentColor" stroke="currentColor" stroke-width="2.88" stroke-linecap="round"/>
  <path d="M 45.6 40.8 L 44.16 40.8 L 45.6 41.04 L 45.6 40.8 M 44.16 40.8 L 45.6 41.04 L 44.16 41.04 L 44.16 40.8 M 45.6 41.04 L 44.16 41.04 L 45.6 41.04 M 44.16 41.04 L 45.6 41.04 L 44.16 41.04" fill="currentColor" stroke="currentColor" stroke-width="2.88" stroke-linecap="round"/>
  <path d="M 45.6 41.04 L 44.16 41.04 L 45.36 41.04 L 45.6 41.04 M 44.16 41.04 L 45.36 41.04 L 44.4 41.04 L 44.16 41.04 M 45.36 41.04 L 44.4 41.04 L 45.36 41.04 M 44.4 41.04 L 45.36 41.04 L 44.4 41.04" fill="currentColor" stroke="currentColor" stroke-width="2.88" stroke-linecap="round"/>
  <path d="M 45.36 41.04 L 44.4 41.04 L 45.12 41.28 L 45.36 41.04 M 44.4 41.04 L 45.12 41.28 L 44.4 41.28 L 44.4 41.04 M 45.12 41.28 L 44.4 41.28 L 44.64 41.28 L 45.12 41.28" fill="currentColor" stroke="currentColor" stroke-width="2.88" stroke-linecap="round"/>
  <path d="M 44.4 41.28 L 45.12 41.28 L 44.4 41.28" fill="currentColor" stroke="currentColor" stroke-width="2.88" stroke-linecap="round"/>
  <path d="M 44.64 41.28 L 44.88 41.28 L 44.64 41.28 M 44.88 41.28 L 44.88 41.28 L 44.64 41.28 L 44.88 41.28 L 44.64 41.28 L 45.12 41.28 L 44.88 41.28" fill="currentColor" stroke="currentColor" stroke-width="2.88" stroke-linecap="round"/>
  <path d="M 48.72 17.4 C 48.72 13.09 45.23 9.6 40.92 9.6 C 36.61 9.6 33.12 13.09 33.12 17.4 C 33.12 21.71 36.61 25.2 40.92 25.2 C 45.23 25.2 48.72 21.71 48.72 17.4" fill="none" stroke="currentColor" stroke-width="2.88" stroke-linecap="round"/>
  <path d="M 36.96 24.48 L 36.96 36.96" fill="none" stroke="currentColor" stroke-width="2.88" stroke-linecap="round"/>
  <path d="M 44.88 24.48 L 44.88 40.08" fill="none" stroke="currentColor" stroke-width="2.88" stroke-linecap="round"/>
  <path d="M 25.2 40.08 L 36.96 40.08" fill="none" stroke="currentColor" stroke-width="2.88" stroke-linecap="round"/>
  <path d="M 56.64 40.08 L 44.88 40.08" fill="none" stroke="currentColor" stroke-width="2.88" stroke-linecap="round"/>
  <path d="M 36.96 40.08 L 44.88 40.08" fill="none" stroke="currentColor" stroke-width="2.88" stroke-linecap="round"/>
  <path d="M 40.08 39.96 C 40.08 38.17 38.63 36.72 36.84 36.72 C 35.05 36.72 33.6 38.17 33.6 39.96 C 33.6 41.75 35.05 43.2 36.84 43.2 C 38.63 43.2 40.08 41.75 40.08 39.96" fill="none" stroke="currentColor" stroke-width="2.88" stroke-linecap="round"/>
  <text x="36.72" y="20.88" font-family="Arial, Helvetica, sans-serif" font-size="8.77" fill="currentColor">W</text>
</svg>
