<svg viewBox="0 0 60 40" xmlns="http://www.w3.org/2000/svg">
  <!--
    3-pole magnetothermal breaker. Per pole: terminal stubs + a diamond
    disconnect-blade glyph; a dashed vertical line ties the 3 poles together
    (ganged operation). No trip modeling yet (see CLAUDE.md Phase 3 notes),
    so there is only ever one visual state — "base" doubles as "closed".
  -->
  <g id="layer:base">
    <path d="M0,10 L26,10" stroke="currentColor" stroke-width="1.5"/>
    <path d="M34,10 L60,10" stroke="currentColor" stroke-width="1.5"/>
    <path d="M30,6 L34,10 L30,14 L26,10 Z" stroke="currentColor" stroke-width="1.5" fill="none"/>

    <path d="M0,20 L26,20" stroke="currentColor" stroke-width="1.5"/>
    <path d="M34,20 L60,20" stroke="currentColor" stroke-width="1.5"/>
    <path d="M30,16 L34,20 L30,24 L26,20 Z" stroke="currentColor" stroke-width="1.5" fill="none"/>

    <path d="M0,30 L26,30" stroke="currentColor" stroke-width="1.5"/>
    <path d="M34,30 L60,30" stroke="currentColor" stroke-width="1.5"/>
    <path d="M30,26 L34,30 L30,34 L26,30 Z" stroke="currentColor" stroke-width="1.5" fill="none"/>

    <path d="M30,6 L30,34" stroke="currentColor" stroke-width="1" stroke-dasharray="3,3"/>
  </g>
  <g id="pins">
    <circle data-pin-id="1" data-pin-kind="power" cx="0" cy="10" r="1"/>
    <circle data-pin-id="2" data-pin-kind="power" cx="60" cy="10" r="1"/>
    <circle data-pin-id="3" data-pin-kind="power" cx="0" cy="20" r="1"/>
    <circle data-pin-id="4" data-pin-kind="power" cx="60" cy="20" r="1"/>
    <circle data-pin-id="5" data-pin-kind="power" cx="0" cy="30" r="1"/>
    <circle data-pin-id="6" data-pin-kind="power" cx="60" cy="30" r="1"/>
  </g>
</svg>
