<svg viewBox="0 0 60 60" xmlns="http://www.w3.org/2000/svg">
  <!--
    3-phase motor — unifilar (single-line) style per the ADG sheet: circle
    body with an "M" glyph (drawn as paths, not <text> — the path-only rule).
    3 terminal stubs kept to the existing U/V/W pins so the multi-line wire
    endpoints are unchanged (art-only swap, spec Decision #3). The animated
    rotor line stays in ComponentSymbol.tsx (rAF-driven cosmetic state).
  -->
  <g id="layer:base">
    <path d="M15,0 L15,8" stroke="currentColor" stroke-width="1.5"/>
    <path d="M30,0 L30,8" stroke="currentColor" stroke-width="1.5"/>
    <path d="M45,0 L45,8" stroke="currentColor" stroke-width="1.5"/>
    <path d="M30,6 A26,26 0 1,0 30,58 A26,26 0 1,0 30,6 Z" stroke="currentColor" stroke-width="1.5" fill="none"/>
    <path d="M20,42 L20,24 L30,36 L40,24 L40,42" stroke="currentColor" stroke-width="1.8" fill="none" stroke-linejoin="round"/>
  </g>
  <g id="layer:energized">
    <path d="M30,6 A26,26 0 1,0 30,58 A26,26 0 1,0 30,6 Z" fill="#f59e0b" opacity="0.15"/>
  </g>
  <g id="pins">
    <circle data-pin-id="U" data-pin-kind="power" cx="15" cy="0" r="1"/>
    <circle data-pin-id="V" data-pin-kind="power" cx="30" cy="0" r="1"/>
    <circle data-pin-id="W" data-pin-kind="power" cx="45" cy="0" r="1"/>
  </g>
</svg>
